<?xml version="1.0" encoding="UTF-8" standalone="no"?>
<!-- Created with Inkscape (http://www.inkscape.org/) -->

<svg
   width="210mm"
   height="297mm"
   viewBox="0 0 210 297"
   version="1.1"
   id="svg5"
   inkscape:version="1.1 (c4e8f9ed74, 2021-05-24)"
   sodipodi:docname="linesearch.svg"
   xmlns:inkscape="http://www.inkscape.org/namespaces/inkscape"
   xmlns:sodipodi="http://sodipodi.sourceforge.net/DTD/sodipodi-0.dtd"
   xmlns:xlink="http://www.w3.org/1999/xlink"
   xmlns="http://www.w3.org/2000/svg"
   xmlns:svg="http://www.w3.org/2000/svg">
  <sodipodi:namedview
     id="namedview7"
     pagecolor="#ffffff"
     bordercolor="#666666"
     borderopacity="1.0"
     inkscape:pageshadow="2"
     inkscape:pageopacity="0.0"
     inkscape:pagecheckerboard="0"
     inkscape:document-units="mm"
     showgrid="false"
     inkscape:snap-bbox="true"
     inkscape:bbox-paths="true"
     inkscape:snap-bbox-edge-midpoints="true"
     inkscape:bbox-nodes="true"
     inkscape:snap-bbox-midpoints="true"
     inkscape:object-paths="true"
     inkscape:snap-intersection-paths="true"
     inkscape:snap-smooth-nodes="true"
     inkscape:snap-midpoints="true"
     inkscape:snap-object-midpoints="true"
     inkscape:snap-center="true"
     inkscape:snap-text-baseline="true"
     inkscape:snap-global="true"
     inkscape:zoom="1"
     inkscape:cx="203.5"
     inkscape:cy="263"
     inkscape:window-width="1920"
     inkscape:window-height="1052"
     inkscape:window-x="0"
     inkscape:window-y="0"
     inkscape:window-maximized="1"
     inkscape:current-layer="layer1"
     showguides="false">
    <sodipodi:guide
       position="9.1465569,199.99107"
       orientation="1,0"
       id="guide1260" />
  </sodipodi:namedview>
  <defs
     id="defs2">
    <marker
       style="overflow:visible;"
       id="marker6112"
       refX="0.0"
       refY="0.0"
       orient="auto"
       inkscape:stockid="Arrow1Mend"
       inkscape:isstock="true">
      <path
         transform="scale(0.4) rotate(180) translate(10,0)"
         style="fill-rule:evenodd;fill:context-stroke;stroke:context-stroke;stroke-width:1.0pt;"
         d="M 0.0,0.0 L 5.0,-5.0 L -12.5,0.0 L 5.0,5.0 L 0.0,0.0 z "
         id="path6110" />
    </marker>
    <marker
       style="overflow:visible;"
       id="marker6102"
       refX="0.0"
       refY="0.0"
       orient="auto"
       inkscape:stockid="Arrow1Mend"
       inkscape:isstock="true">
      <path
         transform="scale(0.4) rotate(180) translate(10,0)"
         style="fill-rule:evenodd;fill:context-stroke;stroke:context-stroke;stroke-width:1.0pt;"
         d="M 0.0,0.0 L 5.0,-5.0 L -12.5,0.0 L 5.0,5.0 L 0.0,0.0 z "
         id="path6100" />
    </marker>
    <marker
       style="overflow:visible"
       id="marker6092"
       refX="0.0"
       refY="0.0"
       orient="auto"
       inkscape:stockid="Arrow1Mstart"
       inkscape:isstock="true">
      <path
         transform="scale(0.4) translate(10,0)"
         style="fill-rule:evenodd;fill:context-stroke;stroke:context-stroke;stroke-width:1.0pt"
         d="M 0.0,0.0 L 5.0,-5.0 L -12.5,0.0 L 5.0,5.0 L 0.0,0.0 z "
         id="path6090" />
    </marker>
    <marker
       style="overflow:visible"
       id="Arrow1Sstart"
       refX="0.0"
       refY="0.0"
       orient="auto"
       inkscape:stockid="Arrow1Sstart"
       inkscape:isstock="true">
      <path
         transform="scale(0.2) translate(6,0)"
         style="fill-rule:evenodd;fill:context-stroke;stroke:context-stroke;stroke-width:1.0pt"
         d="M 0.0,0.0 L 5.0,-5.0 L -12.5,0.0 L 5.0,5.0 L 0.0,0.0 z "
         id="path5521" />
    </marker>
    <marker
       style="overflow:visible"
       id="Arrow1Mstart"
       refX="0.0"
       refY="0.0"
       orient="auto"
       inkscape:stockid="Arrow1Mstart"
       inkscape:isstock="true">
      <path
         transform="scale(0.4) translate(10,0)"
         style="fill-rule:evenodd;fill:context-stroke;stroke:context-stroke;stroke-width:1.0pt"
         d="M 0.0,0.0 L 5.0,-5.0 L -12.5,0.0 L 5.0,5.0 L 0.0,0.0 z "
         id="path5515" />
    </marker>
    <marker
       style="overflow:visible;"
       id="Arrow1Mend"
       refX="0.0"
       refY="0.0"
       orient="auto"
       inkscape:stockid="Arrow1Mend"
       inkscape:isstock="true">
      <path
         transform="scale(0.4) rotate(180) translate(10,0)"
         style="fill-rule:evenodd;fill:context-stroke;stroke:context-stroke;stroke-width:1.0pt;"
         d="M 0.0,0.0 L 5.0,-5.0 L -12.5,0.0 L 5.0,5.0 L 0.0,0.0 z "
         id="path5518" />
    </marker>
    <marker
       style="overflow:visible;"
       id="marker5779"
       refX="0.0"
       refY="0.0"
       orient="auto"
       inkscape:stockid="Arrow1Lend"
       inkscape:isstock="true">
      <path
         transform="scale(0.8) rotate(180) translate(12.5,0)"
         style="fill-rule:evenodd;fill:context-stroke;stroke:context-stroke;stroke-width:1.0pt;"
         d="M 0.0,0.0 L 5.0,-5.0 L -12.5,0.0 L 5.0,5.0 L 0.0,0.0 z "
         id="path5777" />
    </marker>
    <marker
       style="overflow:visible;"
       id="Arrow1Lend"
       refX="0.0"
       refY="0.0"
       orient="auto"
       inkscape:stockid="Arrow1Lend"
       inkscape:isstock="true">
      <path
         transform="scale(0.8) rotate(180) translate(12.5,0)"
         style="fill-rule:evenodd;fill:context-stroke;stroke:context-stroke;stroke-width:1.0pt;"
         d="M 0.0,0.0 L 5.0,-5.0 L -12.5,0.0 L 5.0,5.0 L 0.0,0.0 z "
         id="path5512" />
    </marker>
    <marker
       style="overflow:visible"
       id="Arrow1Lstart"
       refX="0.0"
       refY="0.0"
       orient="auto"
       inkscape:stockid="Arrow1Lstart"
       inkscape:isstock="true">
      <path
         transform="scale(0.8) translate(12.5,0)"
         style="fill-rule:evenodd;fill:context-stroke;stroke:context-stroke;stroke-width:1.0pt"
         d="M 0.0,0.0 L 5.0,-5.0 L -12.5,0.0 L 5.0,5.0 L 0.0,0.0 z "
         id="path17184" />
    </marker>
    <rect
       x="-1404.3629"
       y="-236.65526"
       width="157.52163"
       height="47.650868"
       id="rect9152" />
    <clipPath
       clipPathUnits="userSpaceOnUse"
       id="clipPath1399">
      <path
         style="opacity:0.3;fill:#f80000;fill-opacity:1;stroke:#000000;stroke-width:0.264583px;stroke-linecap:butt;stroke-linejoin:miter;stroke-opacity:1"
         d="m 67.933848,-37.591913 c 3.747156,2.913745 3.747156,2.913745 3.747156,2.913745 l 4.934984,2.931973 4.883645,1.86482 5.907421,1.443006 1.752301,0.15199 9.236599,0.117925 7.303716,-1.478241 6.18587,-2.573176 5.55609,-3.465687 2.44458,-2.013754 101.59852,141.867292 -0.16539,6.36641 -17.15249,12.1783 -8.34867,5.24553 -19.59016,10.28472 -21.28283,7.8378 -4.91597,1.80923 -20.46822,5.19249 -18.17798,2.7835 -22.598143,0.0347 -12.502287,-0.0747 -17.221457,-2.73441 -22.025816,-5.29772 -8.517853,-2.84325 -21.2744701,-8.59981 -20.4808809,-11.21214 -15.162565,-10.49612 -8.13757,-7.2746 z"
         id="path1401" />
    </clipPath>
    <clipPath
       clipPathUnits="userSpaceOnUse"
       id="clipPath1590">
      <path
         style="opacity:0.3;fill:#f80000;fill-opacity:1;stroke:#000000;stroke-width:0.264583px;stroke-linecap:butt;stroke-linejoin:miter;stroke-opacity:1"
         d="m 321.47801,-169.11056 6.39636,4.31436 4.83721,2.36916 7.38672,2.24985 2.73037,0.27818 9.60157,-0.0397 5.94347,-1.17104 4.26609,-1.54925 3.59732,-1.56273 3.61037,-2.14336 3.72978,-2.9557 101.2884,141.287927 0.18376,6.739243 -18.52705,13.1617425 -13.01608,7.51736876 -15.00767,7.35946974 -13.44546,5.561575 -15.54199,5.033371 -16.9199,4.965668 -17.59436,2.110317 -28.4402,-0.223082 -25.06869,-3.298588 -29.1638,-7.614216 -18.22508,-7.3225162 -14.4596,-7.4055618 -19.43782,-12.166511 -13.51588,-8.90541 z"
         id="path1592" />
    </clipPath>
    <clipPath
       clipPathUnits="userSpaceOnUse"
       id="clipPath1827">
      <path
         style="opacity:0.3;fill:#f80000;fill-opacity:1;stroke:#000000;stroke-width:0.264583px;stroke-linecap:butt;stroke-linejoin:miter;stroke-opacity:1"
         d="m 103.77647,-42.40871 c 9.08121,5.769239 9.08121,5.769239 9.08121,5.769239 l 10.88204,3.73742 12.00675,-0.141679 10.34452,-2.720687 8.58305,-5.247526 1.89698,-1.446649 100.89703,142.108097 0.24105,6.109365 -14.2222,10.11345 -10.94653,7.26696 -19.90227,10.35886 -22.31548,8.52732 -28.39644,8.04858 -9.27674,1.45317 -38.05646,0.0715 -14.919591,-2.20025 -22.29467,-5.20552 -8.30892,-2.43982 L 48.380692,133.28795 28.572251,123.52656 13.074354,113.277 -0.64476275,103.62142 Z"
         id="path1829" />
    </clipPath>
    <clipPath
       clipPathUnits="userSpaceOnUse"
       id="clipPath2157">
      <rect
         style="opacity:0.3;fill:#ff0000;fill-opacity:1;fill-rule:evenodd;stroke-width:0.264583"
         id="rect2159"
         width="115.44537"
         height="17.838116"
         x="-664.14301"
         y="-287.55026" />
    </clipPath>
    <rect
       x="-1404.3629"
       y="-236.65526"
       width="157.52164"
       height="47.650867"
       id="rect9152-4" />
    <marker
       style="overflow:visible"
       id="Arrow1Lstart-5"
       refX="0"
       refY="0"
       orient="auto"
       inkscape:stockid="Arrow1Lstart"
       inkscape:isstock="true">
      <path
         transform="matrix(0.8,0,0,0.8,10,0)"
         style="fill:context-stroke;fill-rule:evenodd;stroke:context-stroke;stroke-width:1pt"
         d="M 0,0 5,-5 -12.5,0 5,5 Z"
         id="path17184-4" />
    </marker>
    <marker
       style="overflow:visible"
       id="Arrow1Lstart-4"
       refX="0"
       refY="0"
       orient="auto"
       inkscape:stockid="Arrow1Lstart"
       inkscape:isstock="true">
      <path
         transform="matrix(0.8,0,0,0.8,10,0)"
         style="fill:context-stroke;fill-rule:evenodd;stroke:context-stroke;stroke-width:1pt"
         d="M 0,0 5,-5 -12.5,0 5,5 Z"
         id="path17184-6" />
    </marker>
    <marker
       style="overflow:visible"
       id="Arrow1Lstart-4-2"
       refX="0"
       refY="0"
       orient="auto"
       inkscape:stockid="Arrow1Lstart"
       inkscape:isstock="true">
      <path
         transform="matrix(0.8,0,0,0.8,10,0)"
         style="fill:context-stroke;fill-rule:evenodd;stroke:context-stroke;stroke-width:1pt"
         d="M 0,0 5,-5 -12.5,0 5,5 Z"
         id="path17184-6-2" />
    </marker>
    <marker
       style="overflow:visible"
       id="Arrow1Lstart-7"
       refX="0"
       refY="0"
       orient="auto"
       inkscape:stockid="Arrow1Lstart"
       inkscape:isstock="true">
      <path
         transform="matrix(0.8,0,0,0.8,10,0)"
         style="fill:context-stroke;fill-rule:evenodd;stroke:context-stroke;stroke-width:1pt"
         d="M 0,0 5,-5 -12.5,0 5,5 Z"
         id="path17184-7" />
    </marker>
    <filter
       style="color-interpolation-filters:sRGB;"
       inkscape:label="Blur"
       id="filter1849"
       x="-0.22283044"
       y="-0.0014611576"
       width="1.4456609"
       height="1.0029223">
      <feGaussianBlur
         stdDeviation="1.47 0.01"
         result="blur"
         id="feGaussianBlur1847" />
    </filter>
    <filter
       style="color-interpolation-filters:sRGB;"
       inkscape:label="Blur"
       id="filter1937"
       x="-0.44566089"
       y="-0.0029223151"
       width="1.8913218"
       height="1.0058446">
      <feGaussianBlur
         stdDeviation="1.47 0.01"
         result="fbSourceGraphic"
         id="feGaussianBlur1935" />
      <feColorMatrix
         result="fbSourceGraphicAlpha"
         in="fbSourceGraphic"
         values="0 0 0 -1 0 0 0 0 -1 0 0 0 0 -1 0 0 0 0 1 0"
         id="feColorMatrix1983" />
      <feGaussianBlur
         id="feGaussianBlur1985"
         stdDeviation="1.47 0.01"
         result="blur"
         in="fbSourceGraphic" />
    </filter>
    <filter
       style="color-interpolation-filters:sRGB"
       inkscape:label="Blur"
       id="filter1937-2"
       x="-0.44566089"
       y="-0.0029223151"
       width="1.8913218"
       height="1.0058446">
      <feGaussianBlur
         stdDeviation="1.47 0.01"
         result="fbSourceGraphic"
         id="feGaussianBlur1935-1" />
      <feColorMatrix
         result="fbSourceGraphicAlpha"
         in="fbSourceGraphic"
         values="0 0 0 -1 0 0 0 0 -1 0 0 0 0 -1 0 0 0 0 1 0"
         id="feColorMatrix1983-0" />
      <feGaussianBlur
         id="feGaussianBlur1985-5"
         stdDeviation="1.47 0.01"
         result="blur"
         in="fbSourceGraphic" />
    </filter>
    <filter
       style="color-interpolation-filters:sRGB"
       inkscape:label="Blur"
       id="filter1849-1"
       x="-0.22283044"
       y="-0.0014611576"
       width="1.4456609"
       height="1.0029223">
      <feGaussianBlur
         stdDeviation="1.47 0.01"
         result="blur"
         id="feGaussianBlur1847-1" />
    </filter>
    <filter
       style="color-interpolation-filters:sRGB;"
       inkscape:label="Opacity"
       id="filter1937-2-8"
       x="-1.1141522"
       y="-0.0073057878"
       width="3.2283044"
       height="1.0146116">
      <feGaussianBlur
         stdDeviation="1.47 0.01"
         result="fbSourceGraphic"
         id="feGaussianBlur1935-1-4" />
      <feColorMatrix
         result="fbSourceGraphicAlpha"
         in="fbSourceGraphic"
         values="0 0 0 -1 0 0 0 0 -1 0 0 0 0 -1 0 0 0 0 1 0"
         id="feColorMatrix1983-0-7" />
      <feGaussianBlur
         id="feGaussianBlur1985-5-2"
         stdDeviation="1.47 0.01"
         result="fbSourceGraphic"
         in="fbSourceGraphic" />
      <feColorMatrix
         result="fbSourceGraphicAlpha"
         in="fbSourceGraphic"
         values="0 0 0 -1 0 0 0 0 -1 0 0 0 0 -1 0 0 0 0 1 0"
         id="feColorMatrix2249" />
      <feGaussianBlur
         id="feGaussianBlur2251"
         stdDeviation="1.47 0.01"
         result="fbSourceGraphic"
         in="fbSourceGraphic" />
      <feColorMatrix
         result="fbSourceGraphicAlpha"
         in="fbSourceGraphic"
         values="0 0 0 -1 0 0 0 0 -1 0 0 0 0 -1 0 0 0 0 1 0"
         id="feColorMatrix2271" />
      <feGaussianBlur
         id="feGaussianBlur2273"
         stdDeviation="1.47 0.01"
         result="fbSourceGraphic"
         in="fbSourceGraphic" />
      <feColorMatrix
         result="fbSourceGraphicAlpha"
         in="fbSourceGraphic"
         values="0 0 0 -1 0 0 0 0 -1 0 0 0 0 -1 0 0 0 0 1 0"
         id="feColorMatrix2293" />
      <feGaussianBlur
         id="feGaussianBlur2295"
         stdDeviation="1.47 0.01"
         result="fbSourceGraphic"
         in="fbSourceGraphic" />
      <feColorMatrix
         result="fbSourceGraphicAlpha"
         in="fbSourceGraphic"
         values="0 0 0 -1 0 0 0 0 -1 0 0 0 0 -1 0 0 0 0 1 0"
         id="feColorMatrix2579" />
      <feColorMatrix
         id="feColorMatrix2581"
         values="1 0 0 0 0 0 1 0 0 0 0 0 1 0 0 0 0 0 1 -0 "
         result="colormatrix"
         in="fbSourceGraphic" />
      <feComposite
         in2="colormatrix"
         id="feComposite2583"
         operator="arithmetic"
         k2="0.612155"
         result="composite" />
    </filter>
    <g
       id="g4165">
      <symbol
         overflow="visible"
         id="symbol9085">
        <path
           style="stroke:none;"
           d=""
           id="path9700" />
      </symbol>
      <symbol
         overflow="visible"
         id="symbol6771">
        <path
           style="stroke:none;"
           d="M 4.515625 -2.40625 L 5.859375 -4.390625 L 5.203125 -4.390625 L 4.46875 -2.96875 C 4.46875 -4.171875 4.140625 -4.5 3.171875 -4.5 C 1.4375 -4.5 0.6875 -2.65625 0.6875 -1.359375 C 0.6875 -0.578125 1.015625 0.109375 2 0.109375 C 2.65625 0.109375 3.21875 -0.546875 3.609375 -1.109375 C 3.609375 -1.015625 3.609375 -0.9375 3.609375 -0.84375 C 3.609375 -0.578125 3.640625 -0.328125 3.75 -0.140625 C 3.84375 0.015625 3.96875 0.109375 4.171875 0.109375 C 4.390625 0.109375 4.6875 0.03125 4.921875 -0.140625 C 5.09375 -0.28125 5.4375 -0.609375 5.6875 -1.1875 L 5.46875 -1.3125 C 5.234375 -0.859375 4.859375 -0.359375 4.65625 -0.359375 C 4.40625 -0.359375 4.40625 -0.828125 4.40625 -1.046875 C 4.40625 -1.4375 4.453125 -1.953125 4.515625 -2.40625 Z M 3.65625 -1.796875 C 3.1875 -1.046875 2.71875 -0.375 2.140625 -0.375 C 1.6875 -0.375 1.546875 -0.828125 1.546875 -1.328125 C 1.546875 -2.375 2.09375 -4.1875 3.1875 -4.1875 C 3.609375 -4.1875 3.734375 -3.59375 3.734375 -2.921875 C 3.734375 -2.546875 3.703125 -2.140625 3.65625 -1.796875 Z M 3.65625 -1.796875 "
           id="path8252" />
      </symbol>
      <symbol
         overflow="visible"
         id="symbol3986">
        <path
           style="stroke:none;"
           d=""
           id="path1202" />
      </symbol>
      <symbol
         overflow="visible"
         id="symbol4232">
        <path
           style="stroke:none;"
           d="M 5.828125 -1.3125 L 5.828125 -1.84375 L 0.78125 -1.84375 L 0.78125 -1.3125 Z M 5.828125 -3.328125 L 5.828125 -3.859375 L 0.78125 -3.859375 L 0.78125 -3.328125 Z M 5.828125 -3.328125 "
           id="path4291" />
      </symbol>
      <symbol
         overflow="visible"
         id="symbol7023">
        <path
           style="stroke:none;"
           d=""
           id="path9363" />
      </symbol>
      <symbol
         overflow="visible"
         id="symbol616">
        <path
           style="stroke:none;"
           d="M 2.625 -6.515625 C 1.328125 -6.515625 0.390625 -5.109375 0.390625 -3.171875 C 0.390625 -1.265625 1.3125 0.140625 2.5625 0.140625 C 3.859375 0.140625 4.765625 -1.21875 4.765625 -3.140625 C 4.765625 -4.125 4.5625 -4.9375 4.171875 -5.578125 C 3.8125 -6.15625 3.21875 -6.515625 2.625 -6.515625 Z M 2.5625 -6.125 C 2.875 -6.125 3.171875 -5.921875 3.390625 -5.546875 C 3.640625 -5.125 3.71875 -4.578125 3.71875 -3.3125 C 3.71875 -2.015625 3.65625 -1.40625 3.46875 -0.984375 C 3.265625 -0.53125 2.921875 -0.265625 2.578125 -0.265625 C 2.265625 -0.265625 1.96875 -0.46875 1.75 -0.828125 C 1.484375 -1.265625 1.421875 -1.859375 1.421875 -3.359375 C 1.421875 -4.4375 1.484375 -4.984375 1.671875 -5.390625 C 1.875 -5.859375 2.21875 -6.125 2.5625 -6.125 Z M 2.5625 -6.125 "
           id="path9918" />
      </symbol>
    </g>
    <g
       id="g7512">
      <symbol
         overflow="visible"
         id="symbol3460">
        <path
           style="stroke:none;"
           d=""
           id="path2551" />
      </symbol>
      <symbol
         overflow="visible"
         id="symbol7899">
        <path
           style="stroke:none;"
           d="M 4.515625 -2.40625 L 5.859375 -4.390625 L 5.203125 -4.390625 L 4.46875 -2.96875 C 4.46875 -4.171875 4.140625 -4.5 3.171875 -4.5 C 1.4375 -4.5 0.6875 -2.65625 0.6875 -1.359375 C 0.6875 -0.578125 1.015625 0.109375 2 0.109375 C 2.65625 0.109375 3.21875 -0.546875 3.609375 -1.109375 C 3.609375 -1.015625 3.609375 -0.9375 3.609375 -0.84375 C 3.609375 -0.578125 3.640625 -0.328125 3.75 -0.140625 C 3.84375 0.015625 3.96875 0.109375 4.171875 0.109375 C 4.390625 0.109375 4.6875 0.03125 4.921875 -0.140625 C 5.09375 -0.28125 5.4375 -0.609375 5.6875 -1.1875 L 5.46875 -1.3125 C 5.234375 -0.859375 4.859375 -0.359375 4.65625 -0.359375 C 4.40625 -0.359375 4.40625 -0.828125 4.40625 -1.046875 C 4.40625 -1.4375 4.453125 -1.953125 4.515625 -2.40625 Z M 3.65625 -1.796875 C 3.1875 -1.046875 2.71875 -0.375 2.140625 -0.375 C 1.6875 -0.375 1.546875 -0.828125 1.546875 -1.328125 C 1.546875 -2.375 2.09375 -4.1875 3.1875 -4.1875 C 3.609375 -4.1875 3.734375 -3.59375 3.734375 -2.921875 C 3.734375 -2.546875 3.703125 -2.140625 3.65625 -1.796875 Z M 3.65625 -1.796875 "
           id="path9219" />
      </symbol>
      <symbol
         overflow="visible"
         id="symbol4374">
        <path
           style="stroke:none;"
           d=""
           id="path1347" />
      </symbol>
      <symbol
         overflow="visible"
         id="symbol8499">
        <path
           style="stroke:none;"
           d="M 5.828125 -1.3125 L 5.828125 -1.84375 L 0.78125 -1.84375 L 0.78125 -1.3125 Z M 5.828125 -3.328125 L 5.828125 -3.859375 L 0.78125 -3.859375 L 0.78125 -3.328125 Z M 5.828125 -3.328125 "
           id="path3122" />
      </symbol>
      <symbol
         overflow="visible"
         id="symbol4264">
        <path
           style="stroke:none;"
           d=""
           id="path6372" />
      </symbol>
      <symbol
         overflow="visible"
         id="symbol9138">
        <path
           style="stroke:none;"
           d="M 2.984375 -6.515625 C 2.671875 -6.140625 1.8125 -5.859375 0.96875 -5.84375 L 0.96875 -5.4375 L 1.78125 -5.4375 C 2.3125 -5.4375 2.359375 -5.40625 2.359375 -4.859375 L 2.359375 -0.875 C 2.359375 -0.484375 2.265625 -0.4375 1.53125 -0.4375 L 0.921875 -0.4375 L 0.921875 0 L 4.59375 0 L 4.59375 -0.4375 L 4.09375 -0.4375 C 3.59375 -0.4375 3.390625 -0.46875 3.3125 -0.5625 C 3.25 -0.625 3.25 -0.625 3.25 -1.140625 L 3.25 -4.96875 C 3.25 -5.421875 3.265625 -5.859375 3.3125 -6.515625 Z M 2.984375 -6.515625 "
           id="path4692" />
      </symbol>
    </g>
    <g
       id="g383">
      <symbol
         overflow="visible"
         id="symbol3750">
        <path
           style="stroke:none;"
           d=""
           id="path9529" />
      </symbol>
      <symbol
         overflow="visible"
         id="symbol8240">
        <path
           style="stroke:none;"
           d="M 4.515625 -2.40625 L 5.859375 -4.390625 L 5.203125 -4.390625 L 4.46875 -2.96875 C 4.46875 -4.171875 4.140625 -4.5 3.171875 -4.5 C 1.4375 -4.5 0.6875 -2.65625 0.6875 -1.359375 C 0.6875 -0.578125 1.015625 0.109375 2 0.109375 C 2.65625 0.109375 3.21875 -0.546875 3.609375 -1.109375 C 3.609375 -1.015625 3.609375 -0.9375 3.609375 -0.84375 C 3.609375 -0.578125 3.640625 -0.328125 3.75 -0.140625 C 3.84375 0.015625 3.96875 0.109375 4.171875 0.109375 C 4.390625 0.109375 4.6875 0.03125 4.921875 -0.140625 C 5.09375 -0.28125 5.4375 -0.609375 5.6875 -1.1875 L 5.46875 -1.3125 C 5.234375 -0.859375 4.859375 -0.359375 4.65625 -0.359375 C 4.40625 -0.359375 4.40625 -0.828125 4.40625 -1.046875 C 4.40625 -1.4375 4.453125 -1.953125 4.515625 -2.40625 Z M 3.65625 -1.796875 C 3.1875 -1.046875 2.71875 -0.375 2.140625 -0.375 C 1.6875 -0.375 1.546875 -0.828125 1.546875 -1.328125 C 1.546875 -2.375 2.09375 -4.1875 3.1875 -4.1875 C 3.609375 -4.1875 3.734375 -3.59375 3.734375 -2.921875 C 3.734375 -2.546875 3.703125 -2.140625 3.65625 -1.796875 Z M 3.65625 -1.796875 "
           id="path3048" />
      </symbol>
      <symbol
         overflow="visible"
         id="symbol3205">
        <path
           style="stroke:none;"
           d=""
           id="path6435" />
      </symbol>
      <symbol
         overflow="visible"
         id="symbol4335">
        <path
           style="stroke:none;"
           d="M 5.828125 -1.3125 L 5.828125 -1.84375 L 0.78125 -1.84375 L 0.78125 -1.3125 Z M 5.828125 -3.328125 L 5.828125 -3.859375 L 0.78125 -3.859375 L 0.78125 -3.328125 Z M 5.828125 -3.328125 "
           id="path8060" />
      </symbol>
      <symbol
         overflow="visible"
         id="symbol44">
        <path
           style="stroke:none;"
           d=""
           id="path4372" />
      </symbol>
      <symbol
         overflow="visible"
         id="symbol633">
        <path
           style="stroke:none;"
           d="M 2.625 -6.515625 C 1.328125 -6.515625 0.390625 -5.109375 0.390625 -3.171875 C 0.390625 -1.265625 1.3125 0.140625 2.5625 0.140625 C 3.859375 0.140625 4.765625 -1.21875 4.765625 -3.140625 C 4.765625 -4.125 4.5625 -4.9375 4.171875 -5.578125 C 3.8125 -6.15625 3.21875 -6.515625 2.625 -6.515625 Z M 2.5625 -6.125 C 2.875 -6.125 3.171875 -5.921875 3.390625 -5.546875 C 3.640625 -5.125 3.71875 -4.578125 3.71875 -3.3125 C 3.71875 -2.015625 3.65625 -1.40625 3.46875 -0.984375 C 3.265625 -0.53125 2.921875 -0.265625 2.578125 -0.265625 C 2.265625 -0.265625 1.96875 -0.46875 1.75 -0.828125 C 1.484375 -1.265625 1.421875 -1.859375 1.421875 -3.359375 C 1.421875 -4.4375 1.484375 -4.984375 1.671875 -5.390625 C 1.875 -5.859375 2.21875 -6.125 2.5625 -6.125 Z M 2.5625 -6.125 "
           id="path8439" />
      </symbol>
      <symbol
         overflow="visible"
         id="symbol9714">
        <path
           style="stroke:none;"
           d="M 4.671875 -2 L 4.265625 -2 L 4.171875 -1.53125 C 4.0625 -0.9375 3.984375 -0.875 3.40625 -0.875 L 1.328125 -0.875 C 1.96875 -1.53125 2.1875 -1.734375 2.78125 -2.203125 C 3.625 -2.84375 3.984375 -3.171875 4.203125 -3.453125 C 4.5 -3.859375 4.640625 -4.265625 4.640625 -4.71875 C 4.640625 -5.765625 3.765625 -6.515625 2.5625 -6.515625 C 1.375 -6.515625 0.46875 -5.765625 0.46875 -4.78125 C 0.46875 -4.203125 0.765625 -3.796875 1.21875 -3.796875 C 1.5625 -3.796875 1.78125 -4.03125 1.78125 -4.359375 C 1.78125 -4.59375 1.65625 -4.8125 1.453125 -4.890625 C 1.109375 -5.046875 1.09375 -5.046875 1.09375 -5.171875 C 1.09375 -5.3125 1.1875 -5.515625 1.3125 -5.6875 C 1.546875 -5.953125 1.9375 -6.125 2.375 -6.125 C 3.125 -6.125 3.59375 -5.65625 3.59375 -4.875 C 3.59375 -4.1875 3.265625 -3.5625 2.5 -2.75 L 1.953125 -2.171875 C 1.625 -1.828125 1.390625 -1.578125 1.234375 -1.40625 C 0.90625 -1.015625 0.734375 -0.796875 0.328125 -0.265625 L 0.328125 0 L 4.5 0 Z M 4.671875 -2 "
           id="path4301" />
      </symbol>
      <symbol
         overflow="visible"
         id="symbol6020">
        <path
           style="stroke:none;"
           d="M 3.203125 -3.40625 C 3.328125 -3.453125 3.359375 -3.453125 3.421875 -3.484375 C 4.0625 -3.75 4.4375 -4.265625 4.4375 -4.921875 C 4.4375 -5.890625 3.703125 -6.515625 2.546875 -6.515625 C 1.46875 -6.515625 0.640625 -5.890625 0.640625 -5.046875 C 0.640625 -4.65625 0.90625 -4.390625 1.25 -4.390625 C 1.578125 -4.390625 1.796875 -4.609375 1.796875 -4.953125 C 1.796875 -5.140625 1.71875 -5.265625 1.515625 -5.421875 C 1.421875 -5.484375 1.390625 -5.53125 1.390625 -5.59375 C 1.390625 -5.84375 1.9375 -6.125 2.453125 -6.125 C 3.125 -6.125 3.46875 -5.703125 3.46875 -4.921875 C 3.46875 -4.0625 3.125 -3.609375 2.453125 -3.609375 C 2.375 -3.609375 2.21875 -3.609375 2.078125 -3.625 C 2.015625 -3.625 1.9375 -3.625 1.875 -3.625 C 1.6875 -3.625 1.578125 -3.546875 1.578125 -3.375 C 1.578125 -3.21875 1.6875 -3.15625 1.875 -3.15625 C 1.90625 -3.15625 1.96875 -3.15625 2.09375 -3.15625 C 2.453125 -3.171875 2.453125 -3.171875 2.53125 -3.171875 C 3.21875 -3.171875 3.578125 -2.671875 3.578125 -1.765625 C 3.578125 -0.8125 3.109375 -0.265625 2.28125 -0.265625 C 1.703125 -0.265625 1.078125 -0.578125 1.078125 -0.859375 C 1.078125 -0.9375 1.09375 -0.96875 1.28125 -1.0625 C 1.53125 -1.21875 1.640625 -1.375 1.640625 -1.609375 C 1.640625 -1.953125 1.390625 -2.203125 1.046875 -2.203125 C 0.65625 -2.203125 0.390625 -1.859375 0.390625 -1.375 C 0.390625 -0.484375 1.21875 0.140625 2.40625 0.140625 C 3.734375 0.140625 4.609375 -0.609375 4.609375 -1.734375 C 4.609375 -2.609375 4.15625 -3.140625 3.203125 -3.40625 Z M 3.203125 -3.40625 "
           id="path5415" />
      </symbol>
      <symbol
         overflow="visible"
         id="symbol7225">
        <path
           style="stroke:none;"
           d=""
           id="path5378" />
      </symbol>
      <symbol
         overflow="visible"
         id="symbol1393">
        <path
           style="stroke:none;"
           d="M 1.265625 -1.03125 C 0.9375 -1.03125 0.6875 -0.765625 0.6875 -0.453125 C 0.6875 -0.125 0.9375 0.125 1.265625 0.125 C 1.578125 0.125 1.84375 -0.125 1.84375 -0.453125 C 1.84375 -0.765625 1.578125 -1.03125 1.265625 -1.03125 Z M 1.265625 -1.03125 "
           id="path7785" />
      </symbol>
    </g>
    <g
       id="g6987">
      <symbol
         overflow="visible"
         id="symbol5889">
        <path
           style="stroke:none;"
           d=""
           id="path3462" />
      </symbol>
      <symbol
         overflow="visible"
         id="symbol1902">
        <path
           style="stroke:none;"
           d="M 4.109375 -6.65625 C 2.890625 -6.65625 1.984375 -5.28125 1.734375 -4.140625 L 0.390625 2.171875 L 1.234375 1.921875 L 1.734375 -0.40625 C 1.96875 -0.078125 2.453125 0.109375 2.859375 0.109375 C 4.34375 0.109375 5.46875 -1.234375 5.46875 -2.703125 C 5.46875 -3.375 5.140625 -4.09375 4.109375 -4.15625 C 4.875 -4.328125 5.453125 -4.890625 5.453125 -5.6875 C 5.453125 -5.96875 5.34375 -6.203125 5.140625 -6.390625 C 4.90625 -6.609375 4.453125 -6.65625 4.109375 -6.65625 Z M 4.5625 -2.296875 C 4.28125 -0.953125 3.890625 -0.21875 2.90625 -0.21875 C 2.5 -0.21875 2.03125 -0.625 2.03125 -1.484375 C 2.03125 -1.6875 2.0625 -1.90625 2.109375 -2.15625 L 2.59375 -4.34375 C 2.75 -5.0625 3.0625 -6.328125 4.015625 -6.328125 C 4.5 -6.328125 4.703125 -6.015625 4.703125 -5.578125 C 4.703125 -5.109375 4.53125 -4.3125 3.828125 -4.3125 C 3.5 -4.3125 3.3125 -4.390625 3.203125 -4.390625 C 3.046875 -4.390625 2.953125 -4.296875 2.921875 -4.125 C 2.921875 -4.078125 2.90625 -4.046875 2.90625 -4.015625 C 2.90625 -3.90625 2.96875 -3.859375 3.09375 -3.859375 C 3.21875 -3.859375 3.421875 -3.953125 3.75 -3.953125 C 4.3125 -3.953125 4.59375 -3.28125 4.59375 -2.671875 C 4.59375 -2.546875 4.59375 -2.40625 4.5625 -2.296875 Z M 4.5625 -2.296875 "
           id="path394" />
      </symbol>
      <symbol
         overflow="visible"
         id="symbol4660">
        <path
           style="stroke:none;"
           d=""
           id="path2100" />
      </symbol>
      <symbol
         overflow="visible"
         id="symbol7439">
        <path
           style="stroke:none;"
           d="M 5.828125 -1.3125 L 5.828125 -1.84375 L 0.78125 -1.84375 L 0.78125 -1.3125 Z M 5.828125 -3.328125 L 5.828125 -3.859375 L 0.78125 -3.859375 L 0.78125 -3.328125 Z M 5.828125 -3.328125 "
           id="path4505" />
      </symbol>
      <symbol
         overflow="visible"
         id="symbol6599">
        <path
           style="stroke:none;"
           d=""
           id="path4781" />
      </symbol>
      <symbol
         overflow="visible"
         id="symbol2253">
        <path
           style="stroke:none;"
           d="M 2.625 -6.515625 C 1.328125 -6.515625 0.390625 -5.109375 0.390625 -3.171875 C 0.390625 -1.265625 1.3125 0.140625 2.5625 0.140625 C 3.859375 0.140625 4.765625 -1.21875 4.765625 -3.140625 C 4.765625 -4.125 4.5625 -4.9375 4.171875 -5.578125 C 3.8125 -6.15625 3.21875 -6.515625 2.625 -6.515625 Z M 2.5625 -6.125 C 2.875 -6.125 3.171875 -5.921875 3.390625 -5.546875 C 3.640625 -5.125 3.71875 -4.578125 3.71875 -3.3125 C 3.71875 -2.015625 3.65625 -1.40625 3.46875 -0.984375 C 3.265625 -0.53125 2.921875 -0.265625 2.578125 -0.265625 C 2.265625 -0.265625 1.96875 -0.46875 1.75 -0.828125 C 1.484375 -1.265625 1.421875 -1.859375 1.421875 -3.359375 C 1.421875 -4.4375 1.484375 -4.984375 1.671875 -5.390625 C 1.875 -5.859375 2.21875 -6.125 2.5625 -6.125 Z M 2.5625 -6.125 "
           id="path1455" />
      </symbol>
    </g>
    <g
       id="g3125">
      <symbol
         overflow="visible"
         id="symbol4974">
        <path
           style="stroke:none;"
           d=""
           id="path4338" />
      </symbol>
      <symbol
         overflow="visible"
         id="symbol7481">
        <path
           style="stroke:none;"
           d="M 4.109375 -6.65625 C 2.890625 -6.65625 1.984375 -5.28125 1.734375 -4.140625 L 0.390625 2.171875 L 1.234375 1.921875 L 1.734375 -0.40625 C 1.96875 -0.078125 2.453125 0.109375 2.859375 0.109375 C 4.34375 0.109375 5.46875 -1.234375 5.46875 -2.703125 C 5.46875 -3.375 5.140625 -4.09375 4.109375 -4.15625 C 4.875 -4.328125 5.453125 -4.890625 5.453125 -5.6875 C 5.453125 -5.96875 5.34375 -6.203125 5.140625 -6.390625 C 4.90625 -6.609375 4.453125 -6.65625 4.109375 -6.65625 Z M 4.5625 -2.296875 C 4.28125 -0.953125 3.890625 -0.21875 2.90625 -0.21875 C 2.5 -0.21875 2.03125 -0.625 2.03125 -1.484375 C 2.03125 -1.6875 2.0625 -1.90625 2.109375 -2.15625 L 2.59375 -4.34375 C 2.75 -5.0625 3.0625 -6.328125 4.015625 -6.328125 C 4.5 -6.328125 4.703125 -6.015625 4.703125 -5.578125 C 4.703125 -5.109375 4.53125 -4.3125 3.828125 -4.3125 C 3.5 -4.3125 3.3125 -4.390625 3.203125 -4.390625 C 3.046875 -4.390625 2.953125 -4.296875 2.921875 -4.125 C 2.921875 -4.078125 2.90625 -4.046875 2.90625 -4.015625 C 2.90625 -3.90625 2.96875 -3.859375 3.09375 -3.859375 C 3.21875 -3.859375 3.421875 -3.953125 3.75 -3.953125 C 4.3125 -3.953125 4.59375 -3.28125 4.59375 -2.671875 C 4.59375 -2.546875 4.59375 -2.40625 4.5625 -2.296875 Z M 4.5625 -2.296875 "
           id="path2846" />
      </symbol>
      <symbol
         overflow="visible"
         id="symbol6922">
        <path
           style="stroke:none;"
           d=""
           id="path9436" />
      </symbol>
      <symbol
         overflow="visible"
         id="symbol8273">
        <path
           style="stroke:none;"
           d="M 5.828125 -1.3125 L 5.828125 -1.84375 L 0.78125 -1.84375 L 0.78125 -1.3125 Z M 5.828125 -3.328125 L 5.828125 -3.859375 L 0.78125 -3.859375 L 0.78125 -3.328125 Z M 5.828125 -3.328125 "
           id="path5622" />
      </symbol>
      <symbol
         overflow="visible"
         id="symbol9049">
        <path
           style="stroke:none;"
           d=""
           id="path2781" />
      </symbol>
      <symbol
         overflow="visible"
         id="symbol3541">
        <path
           style="stroke:none;"
           d="M 2.984375 -6.515625 C 2.671875 -6.140625 1.8125 -5.859375 0.96875 -5.84375 L 0.96875 -5.4375 L 1.78125 -5.4375 C 2.3125 -5.4375 2.359375 -5.40625 2.359375 -4.859375 L 2.359375 -0.875 C 2.359375 -0.484375 2.265625 -0.4375 1.53125 -0.4375 L 0.921875 -0.4375 L 0.921875 0 L 4.59375 0 L 4.59375 -0.4375 L 4.09375 -0.4375 C 3.59375 -0.4375 3.390625 -0.46875 3.3125 -0.5625 C 3.25 -0.625 3.25 -0.625 3.25 -1.140625 L 3.25 -4.96875 C 3.25 -5.421875 3.265625 -5.859375 3.3125 -6.515625 Z M 2.984375 -6.515625 "
           id="path2690" />
      </symbol>
    </g>
    <g
       id="g3387">
      <symbol
         overflow="visible"
         id="symbol7438">
        <path
           style="stroke:none;"
           d=""
           id="path1376" />
      </symbol>
      <symbol
         overflow="visible"
         id="symbol3349">
        <path
           style="stroke:none;"
           d="M 4.109375 -6.65625 C 2.890625 -6.65625 1.984375 -5.28125 1.734375 -4.140625 L 0.390625 2.171875 L 1.234375 1.921875 L 1.734375 -0.40625 C 1.96875 -0.078125 2.453125 0.109375 2.859375 0.109375 C 4.34375 0.109375 5.46875 -1.234375 5.46875 -2.703125 C 5.46875 -3.375 5.140625 -4.09375 4.109375 -4.15625 C 4.875 -4.328125 5.453125 -4.890625 5.453125 -5.6875 C 5.453125 -5.96875 5.34375 -6.203125 5.140625 -6.390625 C 4.90625 -6.609375 4.453125 -6.65625 4.109375 -6.65625 Z M 4.5625 -2.296875 C 4.28125 -0.953125 3.890625 -0.21875 2.90625 -0.21875 C 2.5 -0.21875 2.03125 -0.625 2.03125 -1.484375 C 2.03125 -1.6875 2.0625 -1.90625 2.109375 -2.15625 L 2.59375 -4.34375 C 2.75 -5.0625 3.0625 -6.328125 4.015625 -6.328125 C 4.5 -6.328125 4.703125 -6.015625 4.703125 -5.578125 C 4.703125 -5.109375 4.53125 -4.3125 3.828125 -4.3125 C 3.5 -4.3125 3.3125 -4.390625 3.203125 -4.390625 C 3.046875 -4.390625 2.953125 -4.296875 2.921875 -4.125 C 2.921875 -4.078125 2.90625 -4.046875 2.90625 -4.015625 C 2.90625 -3.90625 2.96875 -3.859375 3.09375 -3.859375 C 3.21875 -3.859375 3.421875 -3.953125 3.75 -3.953125 C 4.3125 -3.953125 4.59375 -3.28125 4.59375 -2.671875 C 4.59375 -2.546875 4.59375 -2.40625 4.5625 -2.296875 Z M 4.5625 -2.296875 "
           id="path6315" />
      </symbol>
      <symbol
         overflow="visible"
         id="symbol5998">
        <path
           style="stroke:none;"
           d=""
           id="path8355" />
      </symbol>
      <symbol
         overflow="visible"
         id="symbol9016">
        <path
           style="stroke:none;"
           d="M 5.828125 -1.3125 L 5.828125 -1.84375 L 0.78125 -1.84375 L 0.78125 -1.3125 Z M 5.828125 -3.328125 L 5.828125 -3.859375 L 0.78125 -3.859375 L 0.78125 -3.328125 Z M 5.828125 -3.328125 "
           id="path1550" />
      </symbol>
      <symbol
         overflow="visible"
         id="symbol2011">
        <path
           style="stroke:none;"
           d=""
           id="path4657" />
      </symbol>
      <symbol
         overflow="visible"
         id="symbol3674">
        <path
           style="stroke:none;"
           d="M 1.421875 -3.28125 L 0.15625 -3.203125 L 0.15625 -2.90625 L 0.453125 -2.90625 C 0.71875 -2.90625 0.75 -2.859375 0.75 -2.546875 L 0.75 -0.59375 C 0.75 -0.296875 0.671875 -0.25 0.21875 -0.25 L 0.203125 -0.25 L 0.203125 0 L 1.96875 0 L 1.96875 -0.25 L 1.9375 -0.25 C 1.5 -0.25 1.421875 -0.296875 1.421875 -0.59375 L 1.421875 -1.875 C 1.421875 -2.5 1.765625 -2.953125 2.21875 -2.953125 C 2.40625 -2.953125 2.59375 -2.859375 2.6875 -2.734375 C 2.78125 -2.59375 2.828125 -2.390625 2.828125 -2.09375 L 2.828125 -0.578125 C 2.828125 -0.296875 2.75 -0.25 2.296875 -0.25 L 2.265625 -0.25 L 2.265625 0 L 4.046875 0 L 4.046875 -0.25 L 4.015625 -0.25 C 3.5625 -0.25 3.484375 -0.296875 3.484375 -0.578125 L 3.484375 -1.796875 C 3.484375 -2.515625 3.8125 -2.953125 4.296875 -2.953125 C 4.53125 -2.953125 4.71875 -2.828125 4.8125 -2.609375 C 4.875 -2.453125 4.890625 -2.296875 4.890625 -2.015625 L 4.890625 -0.578125 C 4.890625 -0.296875 4.8125 -0.25 4.359375 -0.25 L 4.328125 -0.25 L 4.328125 0 L 6.109375 0 L 6.109375 -0.25 L 6.09375 -0.25 C 5.640625 -0.25 5.5625 -0.296875 5.5625 -0.59375 L 5.5625 -2.15625 C 5.5625 -2.59375 5.515625 -2.75 5.328125 -2.984375 C 5.125 -3.25 4.84375 -3.390625 4.5 -3.390625 C 4.046875 -3.390625 3.703125 -3.171875 3.40625 -2.6875 C 3.28125 -3.109375 2.90625 -3.390625 2.4375 -3.390625 C 2.015625 -3.390625 1.6875 -3.1875 1.421875 -2.734375 Z M 1.421875 -3.28125 "
           id="path7586" />
      </symbol>
      <symbol
         overflow="visible"
         id="symbol814">
        <path
           style="stroke:none;"
           d="M 3.1875 -2.265625 C 3.1875 -2.71875 3.109375 -2.9375 2.90625 -3.109375 C 2.671875 -3.296875 2.328125 -3.390625 1.875 -3.390625 C 1.078125 -3.390625 0.5 -3.015625 0.5 -2.515625 C 0.5 -2.234375 0.65625 -2.078125 0.90625 -2.078125 C 1.125 -2.078125 1.296875 -2.21875 1.296875 -2.4375 C 1.296875 -2.515625 1.25 -2.625 1.1875 -2.71875 C 1.140625 -2.765625 1.140625 -2.796875 1.140625 -2.8125 C 1.140625 -2.953125 1.421875 -3.09375 1.765625 -3.09375 C 1.984375 -3.09375 2.234375 -3.015625 2.34375 -2.90625 C 2.46875 -2.796875 2.515625 -2.625 2.515625 -2.3125 L 2.515625 -2.03125 C 1.78125 -1.90625 1.5625 -1.859375 1.21875 -1.71875 C 0.609375 -1.5 0.3125 -1.15625 0.3125 -0.71875 C 0.3125 -0.21875 0.71875 0.109375 1.328125 0.109375 C 1.8125 0.109375 2.25 -0.09375 2.5625 -0.453125 C 2.671875 -0.09375 2.84375 0.046875 3.171875 0.046875 C 3.5 0.046875 3.828125 -0.15625 3.828125 -0.359375 C 3.828125 -0.40625 3.796875 -0.4375 3.75 -0.4375 C 3.734375 -0.4375 3.703125 -0.4375 3.65625 -0.421875 C 3.53125 -0.375 3.515625 -0.359375 3.453125 -0.359375 C 3.25 -0.359375 3.1875 -0.5 3.1875 -0.859375 Z M 2.515625 -1.40625 C 2.515625 -0.984375 2.5 -0.890625 2.375 -0.703125 C 2.203125 -0.4375 1.875 -0.265625 1.578125 -0.265625 C 1.265625 -0.265625 1.015625 -0.5 1.015625 -0.8125 C 1.015625 -1.109375 1.171875 -1.328125 1.484375 -1.46875 C 1.703125 -1.578125 1.96875 -1.640625 2.515625 -1.734375 Z M 2.515625 -1.40625 "
           id="path8191" />
      </symbol>
      <symbol
         overflow="visible"
         id="symbol2057">
        <path
           style="stroke:none;"
           d="M 2.171875 -1.796875 L 2.984375 -2.734375 C 3.15625 -2.9375 3.328125 -3.03125 3.515625 -3.03125 L 3.578125 -3.03125 L 3.578125 -3.28125 L 2.109375 -3.28125 L 2.109375 -3.03125 L 2.25 -3.03125 C 2.453125 -3.03125 2.5625 -2.96875 2.5625 -2.875 C 2.5625 -2.796875 2.515625 -2.703125 2.421875 -2.59375 L 1.984375 -2.0625 L 1.4375 -2.75 C 1.390625 -2.796875 1.359375 -2.859375 1.359375 -2.90625 C 1.359375 -3 1.453125 -3.03125 1.671875 -3.03125 L 1.78125 -3.03125 L 1.78125 -3.28125 L 0.109375 -3.28125 L 0.109375 -3.03125 C 0.359375 -3.015625 0.453125 -2.953125 0.6875 -2.65625 L 1.546875 -1.5625 L 0.734375 -0.625 C 0.546875 -0.390625 0.3125 -0.25 0.109375 -0.25 L 0.0625 -0.25 L 0.0625 0 L 1.546875 0 L 1.546875 -0.25 L 1.4375 -0.25 C 1.28125 -0.25 1.25 -0.265625 1.203125 -0.28125 C 1.140625 -0.3125 1.09375 -0.375 1.09375 -0.4375 C 1.09375 -0.5 1.125 -0.5625 1.15625 -0.59375 L 1.75 -1.296875 L 2.28125 -0.59375 C 2.328125 -0.515625 2.375 -0.4375 2.375 -0.375 C 2.375 -0.28125 2.265625 -0.25 2 -0.25 L 1.953125 -0.25 L 1.953125 0 L 3.734375 0 L 3.734375 -0.25 L 3.671875 -0.25 C 3.4375 -0.25 3.25 -0.359375 3.0625 -0.59375 Z M 2.171875 -1.796875 "
           id="path731" />
      </symbol>
    </g>
    <g
       id="g163">
      <symbol
         overflow="visible"
         id="symbol9032">
        <path
           style="stroke:none;"
           d=""
           id="path655" />
      </symbol>
      <symbol
         overflow="visible"
         id="symbol6394">
        <path
           style="stroke:none;"
           d="M 4.109375 -6.65625 C 2.890625 -6.65625 1.984375 -5.28125 1.734375 -4.140625 L 0.390625 2.171875 L 1.234375 1.921875 L 1.734375 -0.40625 C 1.96875 -0.078125 2.453125 0.109375 2.859375 0.109375 C 4.34375 0.109375 5.46875 -1.234375 5.46875 -2.703125 C 5.46875 -3.375 5.140625 -4.09375 4.109375 -4.15625 C 4.875 -4.328125 5.453125 -4.890625 5.453125 -5.6875 C 5.453125 -5.96875 5.34375 -6.203125 5.140625 -6.390625 C 4.90625 -6.609375 4.453125 -6.65625 4.109375 -6.65625 Z M 4.5625 -2.296875 C 4.28125 -0.953125 3.890625 -0.21875 2.90625 -0.21875 C 2.5 -0.21875 2.03125 -0.625 2.03125 -1.484375 C 2.03125 -1.6875 2.0625 -1.90625 2.109375 -2.15625 L 2.59375 -4.34375 C 2.75 -5.0625 3.0625 -6.328125 4.015625 -6.328125 C 4.5 -6.328125 4.703125 -6.015625 4.703125 -5.578125 C 4.703125 -5.109375 4.53125 -4.3125 3.828125 -4.3125 C 3.5 -4.3125 3.3125 -4.390625 3.203125 -4.390625 C 3.046875 -4.390625 2.953125 -4.296875 2.921875 -4.125 C 2.921875 -4.078125 2.90625 -4.046875 2.90625 -4.015625 C 2.90625 -3.90625 2.96875 -3.859375 3.09375 -3.859375 C 3.21875 -3.859375 3.421875 -3.953125 3.75 -3.953125 C 4.3125 -3.953125 4.59375 -3.28125 4.59375 -2.671875 C 4.59375 -2.546875 4.59375 -2.40625 4.5625 -2.296875 Z M 4.5625 -2.296875 "
           id="path3835" />
      </symbol>
      <symbol
         overflow="visible"
         id="symbol4685">
        <path
           style="stroke:none;"
           d=""
           id="path5859" />
      </symbol>
      <symbol
         overflow="visible"
         id="symbol9452">
        <path
           style="stroke:none;"
           d="M 5.828125 -1.3125 L 5.828125 -1.84375 L 0.78125 -1.84375 L 0.78125 -1.3125 Z M 5.828125 -3.328125 L 5.828125 -3.859375 L 0.78125 -3.859375 L 0.78125 -3.328125 Z M 5.828125 -3.328125 "
           id="path9819" />
      </symbol>
      <symbol
         overflow="visible"
         id="symbol8765">
        <path
           style="stroke:none;"
           d=""
           id="path6103" />
      </symbol>
      <symbol
         overflow="visible"
         id="symbol46">
        <path
           style="stroke:none;"
           d="M 1.421875 -3.28125 L 0.15625 -3.203125 L 0.15625 -2.90625 L 0.453125 -2.90625 C 0.71875 -2.90625 0.75 -2.859375 0.75 -2.546875 L 0.75 -0.59375 C 0.75 -0.296875 0.671875 -0.25 0.21875 -0.25 L 0.203125 -0.25 L 0.203125 0 L 1.96875 0 L 1.96875 -0.25 L 1.9375 -0.25 C 1.5 -0.25 1.421875 -0.296875 1.421875 -0.59375 L 1.421875 -1.875 C 1.421875 -2.5 1.765625 -2.953125 2.21875 -2.953125 C 2.40625 -2.953125 2.59375 -2.859375 2.6875 -2.734375 C 2.78125 -2.59375 2.828125 -2.390625 2.828125 -2.09375 L 2.828125 -0.578125 C 2.828125 -0.296875 2.75 -0.25 2.296875 -0.25 L 2.265625 -0.25 L 2.265625 0 L 4.046875 0 L 4.046875 -0.25 L 4.015625 -0.25 C 3.5625 -0.25 3.484375 -0.296875 3.484375 -0.578125 L 3.484375 -1.796875 C 3.484375 -2.515625 3.8125 -2.953125 4.296875 -2.953125 C 4.53125 -2.953125 4.71875 -2.828125 4.8125 -2.609375 C 4.875 -2.453125 4.890625 -2.296875 4.890625 -2.015625 L 4.890625 -0.578125 C 4.890625 -0.296875 4.8125 -0.25 4.359375 -0.25 L 4.328125 -0.25 L 4.328125 0 L 6.109375 0 L 6.109375 -0.25 L 6.09375 -0.25 C 5.640625 -0.25 5.5625 -0.296875 5.5625 -0.59375 L 5.5625 -2.15625 C 5.5625 -2.59375 5.515625 -2.75 5.328125 -2.984375 C 5.125 -3.25 4.84375 -3.390625 4.5 -3.390625 C 4.046875 -3.390625 3.703125 -3.171875 3.40625 -2.6875 C 3.28125 -3.109375 2.90625 -3.390625 2.4375 -3.390625 C 2.015625 -3.390625 1.6875 -3.1875 1.421875 -2.734375 Z M 1.421875 -3.28125 "
           id="path5244" />
      </symbol>
      <symbol
         overflow="visible"
         id="symbol3461">
        <path
           style="stroke:none;"
           d="M 1.453125 -3.28125 L 0.125 -3.203125 L 0.125 -2.90625 L 0.484375 -2.90625 C 0.75 -2.90625 0.796875 -2.859375 0.796875 -2.546875 L 0.796875 -0.578125 C 0.796875 -0.296875 0.71875 -0.25 0.265625 -0.25 L 0.21875 -0.25 L 0.21875 0 L 2.03125 0 L 2.03125 -0.25 L 1.984375 -0.25 C 1.53125 -0.25 1.453125 -0.296875 1.453125 -0.578125 Z M 1.125 -5.03125 C 0.890625 -5.03125 0.71875 -4.859375 0.71875 -4.625 C 0.71875 -4.40625 0.890625 -4.21875 1.109375 -4.21875 C 1.34375 -4.21875 1.53125 -4.40625 1.53125 -4.625 C 1.53125 -4.859375 1.34375 -5.03125 1.125 -5.03125 Z M 1.125 -5.03125 "
           id="path6330" />
      </symbol>
      <symbol
         overflow="visible"
         id="symbol6123">
        <path
           style="stroke:none;"
           d="M 1.40625 -3.28125 L 0.1875 -3.203125 L 0.1875 -2.90625 L 0.4375 -2.90625 C 0.703125 -2.90625 0.75 -2.859375 0.75 -2.546875 L 0.75 -0.578125 C 0.75 -0.296875 0.671875 -0.25 0.21875 -0.25 L 0.1875 -0.25 L 0.1875 0 L 1.96875 0 L 1.96875 -0.25 L 1.9375 -0.25 C 1.484375 -0.25 1.40625 -0.296875 1.40625 -0.578125 L 1.40625 -1.59375 C 1.40625 -1.9375 1.453125 -2.265625 1.53125 -2.421875 C 1.6875 -2.734375 2 -2.953125 2.296875 -2.953125 C 2.484375 -2.953125 2.703125 -2.859375 2.796875 -2.71875 C 2.90625 -2.5625 2.953125 -2.34375 2.953125 -2.015625 L 2.953125 -0.578125 C 2.953125 -0.296875 2.875 -0.25 2.421875 -0.25 L 2.390625 -0.25 L 2.390625 0 L 4.171875 0 L 4.171875 -0.25 L 4.15625 -0.25 C 3.703125 -0.25 3.625 -0.296875 3.625 -0.578125 L 3.625 -1.96875 C 3.625 -2.484375 3.59375 -2.609375 3.46875 -2.84375 C 3.296875 -3.1875 2.9375 -3.390625 2.515625 -3.390625 C 2.078125 -3.390625 1.71875 -3.171875 1.40625 -2.71875 Z M 1.40625 -3.28125 "
           id="path4460" />
      </symbol>
    </g>
    <marker
       style="overflow:visible"
       id="marker6102-6"
       refX="0"
       refY="0"
       orient="auto"
       inkscape:stockid="Arrow1Mend"
       inkscape:isstock="true">
      <path
         transform="matrix(-0.4,0,0,-0.4,-4,0)"
         style="fill:context-stroke;fill-rule:evenodd;stroke:context-stroke;stroke-width:1pt"
         d="M 0,0 5,-5 -12.5,0 5,5 Z"
         id="path6100-4" />
    </marker>
    <g
       id="g7234">
      <symbol
         overflow="visible"
         id="symbol6367">
        <path
           style="stroke:none;"
           d=""
           id="path5644" />
      </symbol>
      <symbol
         overflow="visible"
         id="symbol1416">
        <path
           style="stroke:none;"
           d="M 2.859375 -3.53125 C 3.046875 -3.53125 3.140625 -3.46875 3.28125 -3.46875 C 3.453125 -3.46875 3.546875 -3.609375 3.546875 -3.828125 C 3.546875 -3.921875 3.5 -3.953125 3.390625 -3.953125 C 3.203125 -3.953125 3.203125 -3.90625 2.9375 -3.90625 C 2.4375 -3.90625 2.328125 -4.21875 2.328125 -4.515625 C 2.328125 -5 2.5 -5.375 2.984375 -5.6875 C 3.109375 -5.671875 3.265625 -5.65625 3.40625 -5.65625 C 3.8125 -5.65625 4.25 -5.734375 4.25 -6.21875 C 4.25 -6.3125 4.203125 -6.328125 4.015625 -6.328125 C 3.625 -6.328125 3.328125 -6.3125 2.8125 -5.953125 C 2.515625 -6.140625 2.359375 -6.203125 2.359375 -6.34375 C 2.359375 -6.375 2.359375 -6.390625 2.453125 -6.59375 L 2.328125 -6.65625 C 2.015625 -6.5625 1.75 -6.453125 1.75 -6.25 C 1.75 -6.015625 2.046875 -5.921875 2.578125 -5.78125 C 1.96875 -5.328125 1.59375 -5.0625 1.59375 -4.578125 C 1.59375 -4.25 1.8125 -3.875 2.59375 -3.734375 C 0.53125 -3.28125 0.359375 -2.4375 0.359375 -1.359375 C 0.359375 -0.609375 0.71875 -0.0625 1.890625 0.078125 C 2.21875 0.140625 2.625 0.15625 2.625 0.390625 C 2.625 0.875 2.125 1.265625 1.921875 1.46875 L 2.03125 1.640625 C 2.46875 1.375 3.375 0.703125 3.375 -0.03125 C 3.375 -0.4375 3 -0.546875 2.53125 -0.640625 L 2.453125 -0.65625 C 1.59375 -0.828125 1.140625 -1.265625 1.140625 -1.875 C 1.140625 -2.34375 1.421875 -3.53125 2.859375 -3.53125 Z M 2.859375 -3.53125 "
           id="path9459" />
      </symbol>
    </g>
    <g
       id="g1172">
      <symbol
         overflow="visible"
         id="symbol1531">
        <path
           style="stroke:none;"
           d=""
           id="path8569" />
      </symbol>
      <symbol
         overflow="visible"
         id="symbol2680">
        <path
           style="stroke:none;"
           d="M 2.859375 -3.53125 C 3.046875 -3.53125 3.140625 -3.46875 3.28125 -3.46875 C 3.453125 -3.46875 3.546875 -3.609375 3.546875 -3.828125 C 3.546875 -3.921875 3.5 -3.953125 3.390625 -3.953125 C 3.203125 -3.953125 3.203125 -3.90625 2.9375 -3.90625 C 2.4375 -3.90625 2.328125 -4.21875 2.328125 -4.515625 C 2.328125 -5 2.5 -5.375 2.984375 -5.6875 C 3.109375 -5.671875 3.265625 -5.65625 3.40625 -5.65625 C 3.8125 -5.65625 4.25 -5.734375 4.25 -6.21875 C 4.25 -6.3125 4.203125 -6.328125 4.015625 -6.328125 C 3.625 -6.328125 3.328125 -6.3125 2.8125 -5.953125 C 2.515625 -6.140625 2.359375 -6.203125 2.359375 -6.34375 C 2.359375 -6.375 2.359375 -6.390625 2.453125 -6.59375 L 2.328125 -6.65625 C 2.015625 -6.5625 1.75 -6.453125 1.75 -6.25 C 1.75 -6.015625 2.046875 -5.921875 2.578125 -5.78125 C 1.96875 -5.328125 1.59375 -5.0625 1.59375 -4.578125 C 1.59375 -4.25 1.8125 -3.875 2.59375 -3.734375 C 0.53125 -3.28125 0.359375 -2.4375 0.359375 -1.359375 C 0.359375 -0.609375 0.71875 -0.0625 1.890625 0.078125 C 2.21875 0.140625 2.625 0.15625 2.625 0.390625 C 2.625 0.875 2.125 1.265625 1.921875 1.46875 L 2.03125 1.640625 C 2.46875 1.375 3.375 0.703125 3.375 -0.03125 C 3.375 -0.4375 3 -0.546875 2.53125 -0.640625 L 2.453125 -0.65625 C 1.59375 -0.828125 1.140625 -1.265625 1.140625 -1.875 C 1.140625 -2.34375 1.421875 -3.53125 2.859375 -3.53125 Z M 2.859375 -3.53125 "
           id="path1495" />
      </symbol>
    </g>
    <g
       id="g9363">
      <symbol
         overflow="visible"
         id="symbol7142">
        <path
           style="stroke:none;"
           d=""
           id="path6263" />
      </symbol>
      <symbol
         overflow="visible"
         id="symbol4503">
        <path
           style="stroke:none;"
           d="M 2.71875 -1.125 C 2.171875 -1.25 1.796875 -1.34375 1.796875 -1.828125 C 1.796875 -2.46875 2.1875 -3.15625 2.984375 -3.546875 C 3.171875 -3.5 3.421875 -3.421875 3.59375 -3.421875 C 3.796875 -3.421875 3.953125 -3.609375 3.953125 -3.859375 C 3.953125 -3.984375 3.890625 -4.078125 3.765625 -4.078125 C 3.5625 -4.078125 3.359375 -4.03125 3.171875 -4 C 2.84375 -4.09375 2.6875 -4.328125 2.6875 -4.609375 C 2.6875 -4.984375 2.84375 -5.296875 3.21875 -5.515625 C 3.359375 -5.515625 3.765625 -5.46875 3.921875 -5.46875 C 4.21875 -5.46875 4.6875 -5.671875 4.6875 -6.09375 C 4.6875 -6.25 4.546875 -6.328125 4.3125 -6.328125 C 4.015625 -6.328125 3.734375 -6.296875 3.03125 -5.953125 C 2.703125 -6.09375 2.59375 -6.125 2.59375 -6.265625 C 2.59375 -6.28125 2.59375 -6.3125 2.609375 -6.34375 L 2.78125 -6.625 L 2.4375 -6.703125 C 2.046875 -6.609375 1.6875 -6.484375 1.6875 -6.203125 C 1.6875 -5.859375 2.265625 -5.75 2.578125 -5.6875 C 2.078125 -5.40625 1.609375 -5 1.609375 -4.53125 C 1.609375 -4.171875 1.8125 -3.84375 2.390625 -3.671875 C 0.984375 -2.9375 0.28125 -2.328125 0.28125 -1.328125 C 0.28125 -0.65625 0.78125 -0.109375 1.828125 0.046875 L 2 0.078125 C 2.421875 0.140625 2.875 0.140625 2.875 0.40625 C 2.875 0.796875 2.328125 1.296875 2.140625 1.46875 L 2.3125 1.671875 C 2.734375 1.46875 4.0625 0.59375 4.0625 -0.28125 C 4.0625 -0.828125 3.5 -0.96875 2.890625 -1.09375 Z M 2.71875 -1.125 "
           id="path8817" />
      </symbol>
    </g>
    <g
       id="g6580">
      <symbol
         overflow="visible"
         id="symbol8118">
        <path
           style="stroke:none;"
           d=""
           id="path4844" />
      </symbol>
      <symbol
         overflow="visible"
         id="symbol5508">
        <path
           style="stroke:none;"
           d="M 1.96875 -1.234375 L 1.984375 -1.109375 C 2.109375 -0.59375 2.171875 -0.390625 2.328125 -0.203125 C 2.515625 0.015625 2.765625 0.140625 3.046875 0.140625 C 3.484375 0.140625 3.84375 -0.09375 4.171875 -0.578125 C 4.40625 -0.90625 4.59375 -1.234375 4.703125 -1.5625 L 4.34375 -1.75 C 4.109375 -1.15625 3.859375 -0.8125 3.65625 -0.8125 C 3.453125 -0.8125 3.375 -1 3.203125 -1.859375 L 3.0625 -2.609375 C 3.625 -3.453125 3.890625 -3.75 4.0625 -3.75 C 4.109375 -3.75 4.125 -3.71875 4.140625 -3.640625 C 4.140625 -3.3125 4.34375 -3.125 4.6875 -3.125 C 5.03125 -3.125 5.296875 -3.40625 5.296875 -3.765625 C 5.296875 -4.171875 4.984375 -4.4375 4.546875 -4.4375 C 4.03125 -4.4375 3.703125 -4.203125 3.140625 -3.453125 L 2.9375 -3.1875 C 2.75 -4.09375 2.46875 -4.4375 1.921875 -4.4375 C 1.484375 -4.4375 1.109375 -4.203125 0.6875 -3.65625 C 0.484375 -3.390625 0.328125 -3.140625 0.1875 -2.828125 L 0.5625 -2.65625 C 0.578125 -2.703125 0.609375 -2.734375 0.609375 -2.75 C 0.984375 -3.390625 1.09375 -3.515625 1.265625 -3.515625 C 1.4375 -3.515625 1.5 -3.359375 1.703125 -2.421875 L 1.828125 -1.8125 L 1.453125 -1.28125 C 1.125 -0.8125 0.9375 -0.625 0.796875 -0.625 C 0.765625 -0.625 0.734375 -0.65625 0.71875 -0.734375 C 0.640625 -1.03125 0.4375 -1.1875 0.171875 -1.1875 C -0.203125 -1.1875 -0.453125 -0.9375 -0.453125 -0.5625 C -0.453125 -0.140625 -0.140625 0.140625 0.296875 0.140625 C 0.734375 0.140625 1.234375 -0.203125 1.625 -0.765625 Z M 1.96875 -1.234375 "
           id="path6230" />
      </symbol>
    </g>
    <g
       id="g8785">
      <symbol
         overflow="visible"
         id="symbol708">
        <path
           style="stroke:none;"
           d=""
           id="path6018" />
      </symbol>
      <symbol
         overflow="visible"
         id="symbol2607">
        <path
           style="stroke:none;"
           d="M 3.421875 -2.515625 L 4.390625 -3.421875 C 4.765625 -3.78125 5.046875 -3.90625 5.453125 -3.90625 L 5.453125 -4.375 L 3.171875 -4.375 L 3.171875 -3.90625 L 3.375 -3.90625 C 3.609375 -3.90625 3.75 -3.828125 3.75 -3.703125 C 3.75 -3.609375 3.703125 -3.515625 3.5625 -3.375 L 3.078125 -2.921875 L 2.5625 -3.5625 C 2.484375 -3.65625 2.453125 -3.703125 2.453125 -3.765625 C 2.453125 -3.859375 2.5625 -3.90625 2.765625 -3.90625 L 2.859375 -3.90625 L 2.859375 -4.375 L 0.125 -4.375 L 0.125 -3.90625 C 0.390625 -3.890625 0.5 -3.84375 0.734375 -3.546875 L 2.0625 -1.96875 L 0.9375 -0.90625 C 0.609375 -0.59375 0.390625 -0.484375 0.125 -0.46875 L 0.125 0 L 2.28125 0 L 2.28125 -0.46875 L 2.171875 -0.46875 C 1.90625 -0.46875 1.734375 -0.578125 1.734375 -0.734375 C 1.734375 -0.828125 1.78125 -0.921875 1.859375 -1 L 2.421875 -1.546875 L 2.96875 -0.890625 C 3.046875 -0.8125 3.0625 -0.75 3.0625 -0.6875 C 3.0625 -0.53125 2.953125 -0.46875 2.703125 -0.46875 L 2.625 -0.46875 L 2.625 0 L 5.546875 0 L 5.546875 -0.46875 C 5.203125 -0.484375 5.09375 -0.546875 4.703125 -1 Z M 3.421875 -2.515625 "
           id="path6587" />
      </symbol>
    </g>
    <g
       id="g5387">
      <symbol
         overflow="visible"
         id="symbol7915">
        <path
           style="stroke:none;"
           d=""
           id="path143" />
      </symbol>
      <symbol
         overflow="visible"
         id="symbol5368">
        <path
           style="stroke:none;"
           d="M 8.984375 -5.65625 C 9.296875 -5.65625 9.625 -5.875 9.625 -6.171875 C 9.625 -6.578125 9.203125 -6.625 8.84375 -6.625 C 7.859375 -6.625 6.5625 -5.09375 6.03125 -4.390625 C 6.046875 -4.515625 6.046875 -4.625 6.046875 -4.75 C 6.046875 -5.90625 5.25 -6.625 4 -6.625 C 2.6875 -6.625 1.296875 -5.3125 1.296875 -4.125 C 1.296875 -3.546875 1.625 -3.171875 2.296875 -3.171875 C 3.34375 -3.171875 4.234375 -4.09375 4.234375 -5.015625 C 4.234375 -5.296875 4.125 -5.578125 3.90625 -5.78125 C 3.875 -5.8125 3.828125 -5.828125 3.796875 -5.828125 C 3.71875 -5.828125 3.609375 -5.75 3.609375 -5.6875 L 3.65625 -5.3125 C 3.625 -4.671875 3.125 -3.453125 2.296875 -3.453125 C 1.84375 -3.453125 1.671875 -3.703125 1.671875 -4.078125 C 1.671875 -5.09375 2.859375 -6.3125 4 -6.3125 C 4.84375 -6.3125 5.25 -5.84375 5.25 -5.109375 C 5.25 -4.484375 4.96875 -3.875 4.671875 -3.328125 L 3.890625 -3.328125 C 3.8125 -3.328125 3.734375 -3.25 3.734375 -3.171875 C 3.734375 -3.109375 3.8125 -3.03125 3.890625 -3.03125 L 4.515625 -3.03125 C 4.078125 -2.296875 3.625 -1.5625 3.03125 -0.90625 C 2.75 -0.609375 2.359375 -0.1875 1.75 -0.1875 C 1.34375 -0.1875 0.65625 -0.28125 0.65625 -0.828125 C 0.734375 -0.8125 0.8125 -0.78125 0.890625 -0.78125 C 1.09375 -0.78125 1.4375 -0.921875 1.4375 -1.140625 C 1.4375 -1.375 1.234375 -1.546875 0.984375 -1.546875 C 0.515625 -1.546875 0.25 -1.125 0.25 -0.75 C 0.25 -0.078125 1.171875 0.109375 1.75 0.109375 C 2.765625 0.109375 3.953125 -0.90625 4.546875 -1.578125 C 4.484375 -1.421875 4.453125 -1.265625 4.453125 -1.125 C 4.453125 -0.453125 4.828125 0.109375 5.921875 0.109375 C 6.921875 0.109375 7.671875 -0.9375 8.046875 -1.53125 C 8.046875 -1.546875 8.0625 -1.5625 8.0625 -1.59375 C 8.0625 -1.71875 7.9375 -1.71875 7.828125 -1.71875 C 7.765625 -1.71875 7.734375 -1.71875 7.6875 -1.671875 C 7.609375 -1.578125 7.5625 -1.46875 7.5 -1.359375 C 7.25 -0.953125 6.625 -0.1875 5.921875 -0.1875 C 5.1875 -0.1875 4.875 -0.53125 4.875 -1.140625 C 4.875 -1.828125 5.234375 -2.453125 5.5625 -3.03125 L 6.40625 -3.03125 C 6.484375 -3.03125 6.5625 -3.140625 6.5625 -3.203125 C 6.5625 -3.28125 6.484375 -3.328125 6.40625 -3.328125 L 5.75 -3.328125 C 6.15625 -4 7.796875 -6.234375 8.609375 -6.234375 L 8.625 -6.234375 C 8.578125 -6.1875 8.546875 -6.125 8.546875 -6.046875 C 8.546875 -5.828125 8.734375 -5.65625 8.984375 -5.65625 Z M 8.984375 -5.65625 "
           id="path7461" />
      </symbol>
    </g>
    <g
       id="g4879">
      <symbol
         overflow="visible"
         id="symbol4803">
        <path
           style="stroke:none;"
           d=""
           id="path9411" />
      </symbol>
      <symbol
         overflow="visible"
         id="symbol2508">
        <path
           style="stroke:none;"
           d="M 2.65625 -6.5625 C 1.265625 -6.5625 0.25 -5.140625 0.25 -3.21875 C 0.25 -1.28125 1.265625 0.125 2.65625 0.125 C 4.015625 0.125 5.0625 -1.28125 5.0625 -3.171875 C 5.0625 -4.265625 4.8125 -5.0625 4.265625 -5.75 C 3.828125 -6.28125 3.28125 -6.5625 2.65625 -6.5625 Z M 2.65625 -6.078125 C 2.921875 -6.078125 3.15625 -5.90625 3.25 -5.609375 C 3.375 -5.3125 3.453125 -4.3125 3.453125 -3.203125 C 3.453125 -2.25 3.375 -1.234375 3.296875 -0.921875 C 3.1875 -0.546875 2.96875 -0.359375 2.65625 -0.359375 C 2.359375 -0.359375 2.15625 -0.515625 2.03125 -0.8125 C 1.921875 -1.125 1.84375 -2.125 1.84375 -3.21875 C 1.84375 -4.15625 1.921875 -5.203125 2 -5.515625 C 2.109375 -5.890625 2.328125 -6.078125 2.65625 -6.078125 Z M 2.65625 -6.078125 "
           id="path2854" />
      </symbol>
    </g>
    <g
       id="g9712">
      <symbol
         overflow="visible"
         id="symbol5133">
        <path
           style="stroke:none;"
           d=""
           id="path4083" />
      </symbol>
      <symbol
         overflow="visible"
         id="symbol4000">
        <path
           style="stroke:none;"
           d="M 2.578125 -6.8125 C 2.03125 -6.484375 1.734375 -6.234375 1.421875 -5.859375 C 0.71875 -5.03125 0.328125 -3.96875 0.328125 -2.84375 C 0.328125 -1.78125 0.671875 -0.796875 1.28125 0.03125 C 1.640625 0.46875 1.953125 0.75 2.578125 1.140625 L 2.578125 0.796875 C 1.65625 -0.015625 1.28125 -1.0625 1.28125 -2.84375 C 1.28125 -4.625 1.65625 -5.65625 2.578125 -6.484375 Z M 2.578125 -6.8125 "
           id="path3505" />
      </symbol>
      <symbol
         overflow="visible"
         id="symbol4637">
        <path
           style="stroke:none;"
           d="M 2.625 -6.515625 C 1.328125 -6.515625 0.390625 -5.109375 0.390625 -3.171875 C 0.390625 -1.265625 1.3125 0.140625 2.5625 0.140625 C 3.859375 0.140625 4.765625 -1.21875 4.765625 -3.140625 C 4.765625 -4.125 4.5625 -4.9375 4.171875 -5.578125 C 3.8125 -6.15625 3.21875 -6.515625 2.625 -6.515625 Z M 2.5625 -6.125 C 2.875 -6.125 3.171875 -5.921875 3.390625 -5.546875 C 3.640625 -5.125 3.71875 -4.578125 3.71875 -3.3125 C 3.71875 -2.015625 3.65625 -1.40625 3.46875 -0.984375 C 3.265625 -0.53125 2.921875 -0.265625 2.578125 -0.265625 C 2.265625 -0.265625 1.96875 -0.46875 1.75 -0.828125 C 1.484375 -1.265625 1.421875 -1.859375 1.421875 -3.359375 C 1.421875 -4.4375 1.484375 -4.984375 1.671875 -5.390625 C 1.875 -5.859375 2.21875 -6.125 2.5625 -6.125 Z M 2.5625 -6.125 "
           id="path2666" />
      </symbol>
      <symbol
         overflow="visible"
         id="symbol9547">
        <path
           style="stroke:none;"
           d="M 0.5 1.140625 C 1.0625 0.796875 1.359375 0.5625 1.671875 0.171875 C 2.375 -0.65625 2.75 -1.71875 2.75 -2.84375 C 2.75 -3.90625 2.421875 -4.890625 1.796875 -5.703125 C 1.453125 -6.15625 1.125 -6.4375 0.5 -6.8125 L 0.5 -6.484375 C 1.421875 -5.65625 1.796875 -4.625 1.796875 -2.84375 C 1.796875 -1.0625 1.421875 -0.015625 0.5 0.796875 Z M 0.5 1.140625 "
           id="path3952" />
      </symbol>
      <symbol
         overflow="visible"
         id="symbol3085">
        <path
           style="stroke:none;"
           d=""
           id="path2675" />
      </symbol>
      <symbol
         overflow="visible"
         id="symbol4508">
        <path
           style="stroke:none;"
           d="M 0.8125 1.703125 C 1.625 1.125 2.015625 0.5625 2.015625 -0.078125 C 2.015625 -0.640625 1.71875 -1 1.265625 -1 C 0.921875 -1 0.65625 -0.765625 0.65625 -0.4375 C 0.65625 -0.109375 0.90625 0.109375 1.28125 0.109375 C 1.328125 0.109375 1.421875 0.109375 1.4375 0.09375 L 1.46875 0.09375 C 1.515625 0.09375 1.53125 0.125 1.53125 0.171875 C 1.53125 0.5625 1.21875 1 0.59375 1.4375 Z M 0.8125 1.703125 "
           id="path8832" />
      </symbol>
    </g>
    <g
       id="g6277">
      <symbol
         overflow="visible"
         id="symbol6408">
        <path
           style="stroke:none;"
           d=""
           id="path2927" />
      </symbol>
      <symbol
         overflow="visible"
         id="symbol4612">
        <path
           style="stroke:none;"
           d="M 2.578125 -6.8125 C 2.03125 -6.484375 1.734375 -6.234375 1.421875 -5.859375 C 0.71875 -5.03125 0.328125 -3.96875 0.328125 -2.84375 C 0.328125 -1.78125 0.671875 -0.796875 1.28125 0.03125 C 1.640625 0.46875 1.953125 0.75 2.578125 1.140625 L 2.578125 0.796875 C 1.65625 -0.015625 1.28125 -1.0625 1.28125 -2.84375 C 1.28125 -4.625 1.65625 -5.65625 2.578125 -6.484375 Z M 2.578125 -6.8125 "
           id="path1724" />
      </symbol>
      <symbol
         overflow="visible"
         id="symbol132">
        <path
           style="stroke:none;"
           d="M 2.625 -6.515625 C 1.328125 -6.515625 0.390625 -5.109375 0.390625 -3.171875 C 0.390625 -1.265625 1.3125 0.140625 2.5625 0.140625 C 3.859375 0.140625 4.765625 -1.21875 4.765625 -3.140625 C 4.765625 -4.125 4.5625 -4.9375 4.171875 -5.578125 C 3.8125 -6.15625 3.21875 -6.515625 2.625 -6.515625 Z M 2.5625 -6.125 C 2.875 -6.125 3.171875 -5.921875 3.390625 -5.546875 C 3.640625 -5.125 3.71875 -4.578125 3.71875 -3.3125 C 3.71875 -2.015625 3.65625 -1.40625 3.46875 -0.984375 C 3.265625 -0.53125 2.921875 -0.265625 2.578125 -0.265625 C 2.265625 -0.265625 1.96875 -0.46875 1.75 -0.828125 C 1.484375 -1.265625 1.421875 -1.859375 1.421875 -3.359375 C 1.421875 -4.4375 1.484375 -4.984375 1.671875 -5.390625 C 1.875 -5.859375 2.21875 -6.125 2.5625 -6.125 Z M 2.5625 -6.125 "
           id="path8159" />
      </symbol>
      <symbol
         overflow="visible"
         id="symbol5129">
        <path
           style="stroke:none;"
           d="M 2.984375 -6.515625 C 2.671875 -6.140625 1.8125 -5.859375 0.96875 -5.84375 L 0.96875 -5.4375 L 1.78125 -5.4375 C 2.3125 -5.4375 2.359375 -5.40625 2.359375 -4.859375 L 2.359375 -0.875 C 2.359375 -0.484375 2.265625 -0.4375 1.53125 -0.4375 L 0.921875 -0.4375 L 0.921875 0 L 4.59375 0 L 4.59375 -0.4375 L 4.09375 -0.4375 C 3.59375 -0.4375 3.390625 -0.46875 3.3125 -0.5625 C 3.25 -0.625 3.25 -0.625 3.25 -1.140625 L 3.25 -4.96875 C 3.25 -5.421875 3.265625 -5.859375 3.3125 -6.515625 Z M 2.984375 -6.515625 "
           id="path2421" />
      </symbol>
      <symbol
         overflow="visible"
         id="symbol3581">
        <path
           style="stroke:none;"
           d="M 0.5 1.140625 C 1.0625 0.796875 1.359375 0.5625 1.671875 0.171875 C 2.375 -0.65625 2.75 -1.71875 2.75 -2.84375 C 2.75 -3.90625 2.421875 -4.890625 1.796875 -5.703125 C 1.453125 -6.15625 1.125 -6.4375 0.5 -6.8125 L 0.5 -6.484375 C 1.421875 -5.65625 1.796875 -4.625 1.796875 -2.84375 C 1.796875 -1.0625 1.421875 -0.015625 0.5 0.796875 Z M 0.5 1.140625 "
           id="path7511" />
      </symbol>
      <symbol
         overflow="visible"
         id="symbol8600">
        <path
           style="stroke:none;"
           d=""
           id="path2510" />
      </symbol>
      <symbol
         overflow="visible"
         id="symbol7220">
        <path
           style="stroke:none;"
           d="M 0.8125 1.703125 C 1.625 1.125 2.015625 0.5625 2.015625 -0.078125 C 2.015625 -0.640625 1.71875 -1 1.265625 -1 C 0.921875 -1 0.65625 -0.765625 0.65625 -0.4375 C 0.65625 -0.109375 0.90625 0.109375 1.28125 0.109375 C 1.328125 0.109375 1.421875 0.109375 1.4375 0.09375 L 1.46875 0.09375 C 1.515625 0.09375 1.53125 0.125 1.53125 0.171875 C 1.53125 0.5625 1.21875 1 0.59375 1.4375 Z M 0.8125 1.703125 "
           id="path6159" />
      </symbol>
    </g>
    <g
       id="g2506">
      <symbol
         overflow="visible"
         id="symbol9161">
        <path
           style="stroke:none;"
           d=""
           id="path9358" />
      </symbol>
      <symbol
         overflow="visible"
         id="symbol1171">
        <path
           style="stroke:none;"
           d="M 2.578125 -6.8125 C 2.03125 -6.484375 1.734375 -6.234375 1.421875 -5.859375 C 0.71875 -5.03125 0.328125 -3.96875 0.328125 -2.84375 C 0.328125 -1.78125 0.671875 -0.796875 1.28125 0.03125 C 1.640625 0.46875 1.953125 0.75 2.578125 1.140625 L 2.578125 0.796875 C 1.65625 -0.015625 1.28125 -1.0625 1.28125 -2.84375 C 1.28125 -4.625 1.65625 -5.65625 2.578125 -6.484375 Z M 2.578125 -6.8125 "
           id="path6117" />
      </symbol>
      <symbol
         overflow="visible"
         id="symbol1279">
        <path
           style="stroke:none;"
           d="M 2.984375 -6.515625 C 2.671875 -6.140625 1.8125 -5.859375 0.96875 -5.84375 L 0.96875 -5.4375 L 1.78125 -5.4375 C 2.3125 -5.4375 2.359375 -5.40625 2.359375 -4.859375 L 2.359375 -0.875 C 2.359375 -0.484375 2.265625 -0.4375 1.53125 -0.4375 L 0.921875 -0.4375 L 0.921875 0 L 4.59375 0 L 4.59375 -0.4375 L 4.09375 -0.4375 C 3.59375 -0.4375 3.390625 -0.46875 3.3125 -0.5625 C 3.25 -0.625 3.25 -0.625 3.25 -1.140625 L 3.25 -4.96875 C 3.25 -5.421875 3.265625 -5.859375 3.3125 -6.515625 Z M 2.984375 -6.515625 "
           id="path2449" />
      </symbol>
      <symbol
         overflow="visible"
         id="symbol2397">
        <path
           style="stroke:none;"
           d="M 0.5 1.140625 C 1.0625 0.796875 1.359375 0.5625 1.671875 0.171875 C 2.375 -0.65625 2.75 -1.71875 2.75 -2.84375 C 2.75 -3.90625 2.421875 -4.890625 1.796875 -5.703125 C 1.453125 -6.15625 1.125 -6.4375 0.5 -6.8125 L 0.5 -6.484375 C 1.421875 -5.65625 1.796875 -4.625 1.796875 -2.84375 C 1.796875 -1.0625 1.421875 -0.015625 0.5 0.796875 Z M 0.5 1.140625 "
           id="path5388" />
      </symbol>
      <symbol
         overflow="visible"
         id="symbol6544">
        <path
           style="stroke:none;"
           d=""
           id="path7955" />
      </symbol>
      <symbol
         overflow="visible"
         id="symbol9306">
        <path
           style="stroke:none;"
           d="M 0.8125 1.703125 C 1.625 1.125 2.015625 0.5625 2.015625 -0.078125 C 2.015625 -0.640625 1.71875 -1 1.265625 -1 C 0.921875 -1 0.65625 -0.765625 0.65625 -0.4375 C 0.65625 -0.109375 0.90625 0.109375 1.28125 0.109375 C 1.328125 0.109375 1.421875 0.109375 1.4375 0.09375 L 1.46875 0.09375 C 1.515625 0.09375 1.53125 0.125 1.53125 0.171875 C 1.53125 0.5625 1.21875 1 0.59375 1.4375 Z M 0.8125 1.703125 "
           id="path6906" />
      </symbol>
    </g>
    <g
       id="g4307">
      <symbol
         overflow="visible"
         id="symbol677">
        <path
           style="stroke:none;"
           d=""
           id="path4848" />
      </symbol>
      <symbol
         overflow="visible"
         id="symbol8007">
        <path
           style="stroke:none;"
           d="M 2.578125 -6.8125 C 2.03125 -6.484375 1.734375 -6.234375 1.421875 -5.859375 C 0.71875 -5.03125 0.328125 -3.96875 0.328125 -2.84375 C 0.328125 -1.78125 0.671875 -0.796875 1.28125 0.03125 C 1.640625 0.46875 1.953125 0.75 2.578125 1.140625 L 2.578125 0.796875 C 1.65625 -0.015625 1.28125 -1.0625 1.28125 -2.84375 C 1.28125 -4.625 1.65625 -5.65625 2.578125 -6.484375 Z M 2.578125 -6.8125 "
           id="path8912" />
      </symbol>
      <symbol
         overflow="visible"
         id="symbol1026">
        <path
           style="stroke:none;"
           d="M 2.984375 -6.515625 C 2.671875 -6.140625 1.8125 -5.859375 0.96875 -5.84375 L 0.96875 -5.4375 L 1.78125 -5.4375 C 2.3125 -5.4375 2.359375 -5.40625 2.359375 -4.859375 L 2.359375 -0.875 C 2.359375 -0.484375 2.265625 -0.4375 1.53125 -0.4375 L 0.921875 -0.4375 L 0.921875 0 L 4.59375 0 L 4.59375 -0.4375 L 4.09375 -0.4375 C 3.59375 -0.4375 3.390625 -0.46875 3.3125 -0.5625 C 3.25 -0.625 3.25 -0.625 3.25 -1.140625 L 3.25 -4.96875 C 3.25 -5.421875 3.265625 -5.859375 3.3125 -6.515625 Z M 2.984375 -6.515625 "
           id="path329" />
      </symbol>
      <symbol
         overflow="visible"
         id="symbol1915">
        <path
           style="stroke:none;"
           d="M 2.625 -6.515625 C 1.328125 -6.515625 0.390625 -5.109375 0.390625 -3.171875 C 0.390625 -1.265625 1.3125 0.140625 2.5625 0.140625 C 3.859375 0.140625 4.765625 -1.21875 4.765625 -3.140625 C 4.765625 -4.125 4.5625 -4.9375 4.171875 -5.578125 C 3.8125 -6.15625 3.21875 -6.515625 2.625 -6.515625 Z M 2.5625 -6.125 C 2.875 -6.125 3.171875 -5.921875 3.390625 -5.546875 C 3.640625 -5.125 3.71875 -4.578125 3.71875 -3.3125 C 3.71875 -2.015625 3.65625 -1.40625 3.46875 -0.984375 C 3.265625 -0.53125 2.921875 -0.265625 2.578125 -0.265625 C 2.265625 -0.265625 1.96875 -0.46875 1.75 -0.828125 C 1.484375 -1.265625 1.421875 -1.859375 1.421875 -3.359375 C 1.421875 -4.4375 1.484375 -4.984375 1.671875 -5.390625 C 1.875 -5.859375 2.21875 -6.125 2.5625 -6.125 Z M 2.5625 -6.125 "
           id="path7143" />
      </symbol>
      <symbol
         overflow="visible"
         id="symbol2076">
        <path
           style="stroke:none;"
           d="M 0.5 1.140625 C 1.0625 0.796875 1.359375 0.5625 1.671875 0.171875 C 2.375 -0.65625 2.75 -1.71875 2.75 -2.84375 C 2.75 -3.90625 2.421875 -4.890625 1.796875 -5.703125 C 1.453125 -6.15625 1.125 -6.4375 0.5 -6.8125 L 0.5 -6.484375 C 1.421875 -5.65625 1.796875 -4.625 1.796875 -2.84375 C 1.796875 -1.0625 1.421875 -0.015625 0.5 0.796875 Z M 0.5 1.140625 "
           id="path7674" />
      </symbol>
      <symbol
         overflow="visible"
         id="symbol6592">
        <path
           style="stroke:none;"
           d=""
           id="path8284" />
      </symbol>
      <symbol
         overflow="visible"
         id="symbol6347">
        <path
           style="stroke:none;"
           d="M 0.8125 1.703125 C 1.625 1.125 2.015625 0.5625 2.015625 -0.078125 C 2.015625 -0.640625 1.71875 -1 1.265625 -1 C 0.921875 -1 0.65625 -0.765625 0.65625 -0.4375 C 0.65625 -0.109375 0.90625 0.109375 1.28125 0.109375 C 1.328125 0.109375 1.421875 0.109375 1.4375 0.09375 L 1.46875 0.09375 C 1.515625 0.09375 1.53125 0.125 1.53125 0.171875 C 1.53125 0.5625 1.21875 1 0.59375 1.4375 Z M 0.8125 1.703125 "
           id="path3784" />
      </symbol>
    </g>
    <g
       id="g6895">
      <symbol
         overflow="visible"
         id="symbol7736">
        <path
           style="stroke:none;"
           d=""
           id="path699" />
      </symbol>
      <symbol
         overflow="visible"
         id="symbol175">
        <path
           style="stroke:none;"
           d="M 4.515625 -2.40625 L 5.859375 -4.390625 L 5.203125 -4.390625 L 4.46875 -2.96875 C 4.46875 -4.171875 4.140625 -4.5 3.171875 -4.5 C 1.4375 -4.5 0.6875 -2.65625 0.6875 -1.359375 C 0.6875 -0.578125 1.015625 0.109375 2 0.109375 C 2.65625 0.109375 3.21875 -0.546875 3.609375 -1.109375 C 3.609375 -1.015625 3.609375 -0.9375 3.609375 -0.84375 C 3.609375 -0.578125 3.640625 -0.328125 3.75 -0.140625 C 3.84375 0.015625 3.96875 0.109375 4.171875 0.109375 C 4.390625 0.109375 4.6875 0.03125 4.921875 -0.140625 C 5.09375 -0.28125 5.4375 -0.609375 5.6875 -1.1875 L 5.46875 -1.3125 C 5.234375 -0.859375 4.859375 -0.359375 4.65625 -0.359375 C 4.40625 -0.359375 4.40625 -0.828125 4.40625 -1.046875 C 4.40625 -1.4375 4.453125 -1.953125 4.515625 -2.40625 Z M 3.65625 -1.796875 C 3.1875 -1.046875 2.71875 -0.375 2.140625 -0.375 C 1.6875 -0.375 1.546875 -0.828125 1.546875 -1.328125 C 1.546875 -2.375 2.09375 -4.1875 3.1875 -4.1875 C 3.609375 -4.1875 3.734375 -3.59375 3.734375 -2.921875 C 3.734375 -2.546875 3.703125 -2.140625 3.65625 -1.796875 Z M 3.65625 -1.796875 "
           id="path3815" />
      </symbol>
    </g>
  </defs>
  <g
     inkscape:label="Layer 1"
     inkscape:groupmode="layer"
     id="layer1">
    <rect
       style="fill:none;fill-opacity:0.99544;fill-rule:evenodd;stroke:#4f81ff;stroke-width:0.999999;stroke-miterlimit:4;stroke-dasharray:none;stroke-opacity:0.988235"
       id="rect15186"
       width="102.894"
       height="68.895424"
       x="31.392084"
       y="53.436256" />
    <g
       id="g17060"
       transform="translate(416.84921,103.97925)">
      <rect
         style="fill:#f0f0f0;fill-opacity:1;fill-rule:evenodd;stroke-width:0.264583"
         id="rect2202"
         width="105.22829"
         height="18.480595"
         x="-386.71915"
         y="-89.32946" />
      <rect
         style="fill:#f9ffff;fill-opacity:1;fill-rule:evenodd;stroke-width:0.264583"
         id="rect4081"
         width="99.58139"
         height="13.318116"
         x="-384.53986"
         y="-86.518959" />
      <rect
         style="fill:#6cadfb;fill-opacity:1;fill-rule:evenodd;stroke-width:0.264583"
         id="rect4589"
         width="5.1427069"
         height="11.753263"
         x="-365.87616"
         y="-85.710152" />
      <text
         xml:space="preserve"
         transform="matrix(0.26458333,0,0,0.26458333,30.317061,-21.760107)"
         id="text9150"
         style="font-size:28px;line-height:1.25;font-family:'TeX Gyre Schola';-inkscape-font-specification:'TeX Gyre Schola, Normal';letter-spacing:0px;word-spacing:0px;writing-mode:lr-tb;white-space:pre;shape-inside:url(#rect9152)"><tspan
           x="-1404.3633"
           y="-210.8103"
           id="tspan1731">0.23</tspan></text>
    </g>
    <text
       xml:space="preserve"
       style="font-size:7.40833px;line-height:1.25;font-family:'TeX Gyre Schola';-inkscape-font-specification:'TeX Gyre Schola, Normal';letter-spacing:0px;word-spacing:0px;writing-mode:lr-tb;stroke-width:0.264583"
       x="-418.20609"
       y="-144.192"
       id="text36548"><tspan
         sodipodi:role="line"
         id="tspan36546"
         style="stroke-width:0.264583"
         x="-418.20609"
         y="-144.192" /></text>
    <path
       style="fill:none;stroke:#000000;stroke-width:1.5;stroke-linecap:butt;stroke-linejoin:miter;stroke-miterlimit:4;stroke-dasharray:none;stroke-opacity:1;marker-end:"
       d="M 32.977274,71.631805 C 133.30774,104.33381 132.70118,104.13611 132.70118,104.13611"
       id="path3818-8" />
    <path
       style="fill:#f75c64;fill-opacity:1;stroke:#f75c64;stroke-width:0.7;stroke-linecap:butt;stroke-linejoin:miter;stroke-miterlimit:4;stroke-dasharray:0.7, 0.7;stroke-dashoffset:0;stroke-opacity:1;marker-end:url(#marker6092)"
       d="m 77.196976,89.122837 c 28.169564,9.177299 27.999284,9.121814 27.999284,9.121814"
       id="path3818-8-0" />
    <circle
       style="opacity:1;fill:#000000;fill-opacity:1;stroke:none;stroke-width:1;stroke-linecap:round;stroke-linejoin:round;stroke-miterlimit:4;stroke-dasharray:none"
       id="path4161"
       cx="55.99231"
       cy="79.133392"
       r="3.2598891" />
    <circle
       style="fill:#000000;fill-opacity:1;stroke:none;stroke-width:1;stroke-linecap:round;stroke-linejoin:round;stroke-miterlimit:4;stroke-dasharray:none"
       id="path4161-7"
       cx="32.74485"
       cy="70.918724"
       r="3.2598891" />
    <circle
       style="fill:#000000;fill-opacity:1;stroke:none;stroke-width:1;stroke-linecap:round;stroke-linejoin:round;stroke-miterlimit:4;stroke-dasharray:none"
       id="path4161-7-7"
       cx="135.51169"
       cy="105.05215"
       r="3.2598891" />
    <path
       style="fill:none;stroke:#000000;stroke-width:0.5;stroke-linecap:butt;stroke-linejoin:miter;stroke-opacity:1;marker-end:url(#marker6102);stroke-miterlimit:4;stroke-dasharray:0.5, 0.5;stroke-dashoffset:0"
       d="m 32.309353,30.778405 c 0,0 -23.8126033,14.174406 -3.039978,36.316416"
       id="path5982" />
    <path
       style="fill:none;stroke:#000000;stroke-width:0.50000001;stroke-linecap:butt;stroke-linejoin:miter;stroke-opacity:1;marker-end:url(#marker6112);stroke-miterlimit:4;stroke-dasharray:0.50000001, 0.50000001;stroke-dashoffset:0"
       d="m 131.89074,30.778405 c 0,0 30.91459,40.236835 5.17622,69.562835"
       id="path5984" />
    <g
       inkscape:label=""
       transform="matrix(0.65547516,0,0,0.65547516,49.230274,58.950334)"
       id="g6789"
       style="stroke-width:1.52561">
      <g
         id="g6905"
         style="stroke-width:1.52561">
        <g
           style="fill:#000000;fill-opacity:1;stroke-width:1.52561"
           id="g5953">
          <use
             xlink:href="#symbol3349"
             x="91.925003"
             y="81.962997"
             id="use8260"
             width="100%"
             height="100%"
             style="stroke-width:1.52561" />
        </g>
        <g
           style="fill:#000000;fill-opacity:1;stroke-width:1.52561"
           id="g205">
          <use
             xlink:href="#symbol9016"
             x="99.508003"
             y="81.962997"
             id="use8063"
             width="100%"
             height="100%"
             style="stroke-width:1.52561" />
        </g>
        <g
           style="fill:#000000;fill-opacity:1;stroke-width:1.52561"
           id="g2726">
          <use
             xlink:href="#symbol3349"
             x="107.808"
             y="81.962997"
             id="use2110"
             width="100%"
             height="100%"
             style="stroke-width:1.52561" />
        </g>
        <g
           style="fill:#000000;fill-opacity:1;stroke-width:1.52561"
           id="g8741">
          <use
             xlink:href="#symbol3674"
             x="113.686"
             y="83.457001"
             id="use1349"
             width="100%"
             height="100%"
             style="stroke-width:1.52561" />
          <use
             xlink:href="#symbol814"
             x="119.94589"
             y="83.457001"
             id="use1816"
             width="100%"
             height="100%"
             style="stroke-width:1.52561" />
          <use
             xlink:href="#symbol2057"
             x="123.86097"
             y="83.457001"
             id="use1013"
             width="100%"
             height="100%"
             style="stroke-width:1.52561" />
        </g>
      </g>
    </g>
    <g
       inkscape:label=""
       transform="matrix(0.70704056,0,0,0.70704056,-30.088679,5.3443048)"
       id="g7293"
       style="stroke-width:1.41435">
      <g
         id="g3797"
         style="stroke-width:1.41435">
        <g
           style="fill:#000000;fill-opacity:1;stroke-width:1.41435"
           id="g4757">
          <use
             xlink:href="#symbol6394"
             x="91.925003"
             y="81.962997"
             id="use1471"
             width="100%"
             height="100%"
             style="stroke-width:1.41435" />
        </g>
        <g
           style="fill:#000000;fill-opacity:1;stroke-width:1.41435"
           id="g8852">
          <use
             xlink:href="#symbol9452"
             x="99.508003"
             y="81.962997"
             id="use4959"
             width="100%"
             height="100%"
             style="stroke-width:1.41435" />
        </g>
        <g
           style="fill:#000000;fill-opacity:1;stroke-width:1.41435"
           id="g4296">
          <use
             xlink:href="#symbol6394"
             x="107.808"
             y="81.962997"
             id="use6684"
             width="100%"
             height="100%"
             style="stroke-width:1.41435" />
        </g>
        <g
           style="fill:#000000;fill-opacity:1;stroke-width:1.41435"
           id="g361">
          <use
             xlink:href="#symbol46"
             x="113.686"
             y="83.602997"
             id="use9379"
             width="100%"
             height="100%"
             style="stroke-width:1.41435" />
          <use
             xlink:href="#symbol3461"
             x="119.94589"
             y="83.602997"
             id="use1413"
             width="100%"
             height="100%"
             style="stroke-width:1.41435" />
          <use
             xlink:href="#symbol6123"
             x="122.16396"
             y="83.602997"
             id="use3184"
             width="100%"
             height="100%"
             style="stroke-width:1.41435" />
        </g>
      </g>
    </g>
    <path
       style="fill:none;stroke:#000000;stroke-width:0.5;stroke-linecap:butt;stroke-linejoin:miter;stroke-opacity:1;stroke-miterlimit:4;stroke-dasharray:0.5, 0.5;stroke-dashoffset:0;marker-end:url(#marker6102)"
       d="m 53.544401,30.022363 c 0,0 24.991623,26.425861 6.172398,45.113519"
       id="path7700" />
    <g
       inkscape:label=""
       transform="translate(-9.0530199,19.069513)"
       id="g13670"
       style="fill:#f75c64;fill-opacity:1">
      <g
         id="g6862"
         style="fill:#f75c64;fill-opacity:1">
        <g
           style="fill:#f75c64;fill-opacity:1"
           id="g1008">
          <use
             xlink:href="#symbol4503"
             x="91.925003"
             y="81.962997"
             id="use7942"
             width="100%"
             height="100%"
             style="fill:#f75c64;fill-opacity:1" />
        </g>
      </g>
    </g>
    <g
       inkscape:label=""
       transform="translate(-48.423905,25.073713)"
       id="g14788"
       style="stroke:#9c4fa1;stroke-opacity:1;fill:#9c4fa1;fill-opacity:1">
      <g
         id="g988"
         style="stroke:#9c4fa1;stroke-opacity:1;fill:#9c4fa1;fill-opacity:1">
        <g
           style="fill:#9c4fa1;fill-opacity:1;stroke:#9c4fa1;stroke-opacity:1"
           id="g221">
          <use
             xlink:href="#symbol2607"
             x="91.925003"
             y="81.962997"
             id="use1655"
             width="100%"
             height="100%"
             style="stroke:#9c4fa1;stroke-opacity:1;fill:#9c4fa1;fill-opacity:1" />
        </g>
      </g>
    </g>
    <path
       style="fill:#aa16a1;stroke:#9c4fa1;stroke-width:0.7;stroke-linecap:butt;stroke-linejoin:miter;stroke-miterlimit:4.0999999;stroke-dasharray:0.7,0.7;stroke-opacity:1;marker-end:url(#Arrow1Mend);fill-opacity:0.67843139;stroke-dashoffset:0"
       d="M 33.386661,122.09303 74.626893,88.816988"
       id="path17055" />
    <g
       inkscape:label=""
       transform="translate(30.141279,-18.631184)"
       id="g34340"
       style="fill:#4f81ff;fill-opacity:0.98823529">
      <g
         id="g3528"
         style="fill:#4f81ff;fill-opacity:0.98823529">
        <g
           style="fill:#4f81ff;fill-opacity:0.98823529"
           id="g6589">
          <use
             xlink:href="#symbol5368"
             x="91.925003"
             y="81.962997"
             id="use3089"
             width="100%"
             height="100%"
             style="fill:#4f81ff;fill-opacity:0.98823529" />
        </g>
      </g>
    </g>
    <g
       inkscape:label=""
       transform="matrix(0.81685648,0,0,0.81685648,-43.112715,64.002106)"
       id="g45807"
       style="stroke-width:1.22421">
      <g
         id="g1482"
         style="stroke-width:1.22421">
        <g
           style="fill:#000000;fill-opacity:1;stroke-width:1.22421"
           id="g6896">
          <use
             xlink:href="#symbol4000"
             x="91.925003"
             y="81.962997"
             id="use4071"
             width="100%"
             height="100%"
             style="stroke-width:1.22421" />
          <use
             xlink:href="#symbol4637"
             x="95.010315"
             y="81.962997"
             id="use834"
             width="100%"
             height="100%"
             style="stroke-width:1.22421" />
        </g>
        <g
           style="fill:#000000;fill-opacity:1;stroke-width:1.22421"
           id="g893">
          <use
             xlink:href="#symbol4508"
             x="100.162"
             y="81.962997"
             id="use9414"
             width="100%"
             height="100%"
             style="stroke-width:1.22421" />
        </g>
        <g
           style="fill:#000000;fill-opacity:1;stroke-width:1.22421"
           id="g4720">
          <use
             xlink:href="#symbol4637"
             x="104.69"
             y="81.962997"
             id="use5879"
             width="100%"
             height="100%"
             style="stroke-width:1.22421" />
          <use
             xlink:href="#symbol9547"
             x="109.84145"
             y="81.962997"
             id="use211"
             width="100%"
             height="100%"
             style="stroke-width:1.22421" />
        </g>
      </g>
    </g>
    <g
       inkscape:label=""
       transform="matrix(0.81427037,0,0,0.81427037,44.459336,64.196454)"
       id="g46453"
       style="stroke-width:1.22809">
      <g
         id="g1836"
         style="stroke-width:1.22809">
        <g
           style="fill:#000000;fill-opacity:1;stroke-width:1.22809"
           id="g8911">
          <use
             xlink:href="#symbol4612"
             x="91.925003"
             y="81.962997"
             id="use9973"
             width="100%"
             height="100%"
             style="stroke-width:1.22809" />
          <use
             xlink:href="#symbol132"
             x="95.010315"
             y="81.962997"
             id="use5925"
             width="100%"
             height="100%"
             style="stroke-width:1.22809" />
        </g>
        <g
           style="fill:#000000;fill-opacity:1;stroke-width:1.22809"
           id="g4228">
          <use
             xlink:href="#symbol7220"
             x="100.162"
             y="81.962997"
             id="use5436"
             width="100%"
             height="100%"
             style="stroke-width:1.22809" />
        </g>
        <g
           style="fill:#000000;fill-opacity:1;stroke-width:1.22809"
           id="g8503">
          <use
             xlink:href="#symbol5129"
             x="104.69"
             y="81.962997"
             id="use9820"
             width="100%"
             height="100%"
             style="stroke-width:1.22809" />
          <use
             xlink:href="#symbol3581"
             x="109.84145"
             y="81.962997"
             id="use5647"
             width="100%"
             height="100%"
             style="stroke-width:1.22809" />
        </g>
      </g>
    </g>
    <g
       inkscape:label=""
       transform="matrix(0.80874136,0,0,0.80874136,45.081855,-16.403735)"
       id="g47149"
       style="stroke-width:1.23649">
      <g
         id="g6228"
         style="stroke-width:1.23649">
        <g
           style="fill:#000000;fill-opacity:1;stroke-width:1.23649"
           id="g7556">
          <use
             xlink:href="#symbol1171"
             x="91.925003"
             y="81.962997"
             id="use5334"
             width="100%"
             height="100%"
             style="stroke-width:1.23649" />
          <use
             xlink:href="#symbol1279"
             x="95.010315"
             y="81.962997"
             id="use8340"
             width="100%"
             height="100%"
             style="stroke-width:1.23649" />
        </g>
        <g
           style="fill:#000000;fill-opacity:1;stroke-width:1.23649"
           id="g4662">
          <use
             xlink:href="#symbol9306"
             x="100.162"
             y="81.962997"
             id="use8600"
             width="100%"
             height="100%"
             style="stroke-width:1.23649" />
        </g>
        <g
           style="fill:#000000;fill-opacity:1;stroke-width:1.23649"
           id="g1977">
          <use
             xlink:href="#symbol1279"
             x="104.69"
             y="81.962997"
             id="use1336"
             width="100%"
             height="100%"
             style="stroke-width:1.23649" />
          <use
             xlink:href="#symbol2397"
             x="109.84145"
             y="81.962997"
             id="use4738"
             width="100%"
             height="100%"
             style="stroke-width:1.23649" />
        </g>
      </g>
    </g>
    <g
       inkscape:label=""
       transform="matrix(0.80620021,0,0,0.80620021,-42.129641,-16.191127)"
       id="g47891"
       style="stroke-width:1.24039">
      <g
         id="g1183"
         style="stroke-width:1.24039">
        <g
           style="fill:#000000;fill-opacity:1;stroke-width:1.24039"
           id="g2849">
          <use
             xlink:href="#symbol8007"
             x="91.925003"
             y="81.962997"
             id="use2561"
             width="100%"
             height="100%"
             style="stroke-width:1.24039" />
          <use
             xlink:href="#symbol1026"
             x="95.010315"
             y="81.962997"
             id="use9703"
             width="100%"
             height="100%"
             style="stroke-width:1.24039" />
        </g>
        <g
           style="fill:#000000;fill-opacity:1;stroke-width:1.24039"
           id="g5158">
          <use
             xlink:href="#symbol6347"
             x="100.162"
             y="81.962997"
             id="use6045"
             width="100%"
             height="100%"
             style="stroke-width:1.24039" />
        </g>
        <g
           style="fill:#000000;fill-opacity:1;stroke-width:1.24039"
           id="g2689">
          <use
             xlink:href="#symbol1915"
             x="104.69"
             y="81.962997"
             id="use172"
             width="100%"
             height="100%"
             style="stroke-width:1.24039" />
          <use
             xlink:href="#symbol2076"
             x="109.84145"
             y="81.962997"
             id="use6124"
             width="100%"
             height="100%"
             style="stroke-width:1.24039" />
        </g>
      </g>
    </g>
    <text
       xml:space="preserve"
       style="font-size:7.40833px;line-height:1.25;font-family:'TeX Gyre Schola';-inkscape-font-specification:'TeX Gyre Schola, Normal';letter-spacing:0px;word-spacing:0px;writing-mode:lr-tb;stroke-width:0.264583"
       x="56.789204"
       y="12.951166"
       id="text2077"><tspan
         sodipodi:role="line"
         id="tspan2075"
         style="stroke-width:0.264583"
         x="56.789204"
         y="12.951166">Slider interface</tspan></text>
    <text
       xml:space="preserve"
       style="font-size:7.40833px;line-height:1.25;font-family:'TeX Gyre Schola';-inkscape-font-specification:'TeX Gyre Schola, Normal';letter-spacing:0px;word-spacing:0px;writing-mode:lr-tb;stroke-width:0.264583"
       x="97.507828"
       y="53.130527"
       id="text2077-0"
       transform="rotate(18.304815)"><tspan
         sodipodi:role="line"
         id="tspan2075-3"
         style="stroke-width:0.264583"
         x="97.507828"
         y="53.130527">1D embedding</tspan></text>
    <g
       inkscape:label=""
       transform="translate(-40.886738,8.4305526)"
       id="g3906">
      <g
         id="g5353">
        <g
           style="fill:#000000;fill-opacity:1"
           id="g7275">
          <use
             xlink:href="#symbol175"
             x="91.925003"
             y="81.962997"
             id="use4036"
             width="100%"
             height="100%" />
        </g>
      </g>
    </g>
    <path
       style="fill:#c3c4c3;fill-opacity:1;stroke-width:1.88976;stroke-linecap:round;stroke-linejoin:round;stroke-dasharray:3.77953, 1.88976"
       d="m 162.40741,125.73541 c -51.02057,-0.19957 -48.73075,-0.0609 -48.69738,-2.94982 0.003,-0.30126 0.58681,-0.55126 1.2963,-0.55556 0.70948,-0.004 1.28997,-0.50781 1.28997,-1.11892 0,-0.61111 -0.58334,-1.06481 -1.2963,-1.00823 -1.21644,0.0965 -1.2963,-1.89986 -1.2963,-32.407407 V 55.185185 h 198.88889 198.88889 v 35.17472 35.174725 l -148.84205,0.0155 c -112.00484,0.0117 -148.9733,-0.19684 -149.37233,-0.84249 -0.3874,-0.62682 -0.7493,-0.57828 -1.34313,0.18013 -0.68518,0.87509 -8.46258,1.00822 -49.51656,0.84763 z m 342.07692,-1.72588 c 0.76335,-1.23512 -0.95349,-2.65149 -1.97534,-1.62963 -0.85476,0.85476 -0.3198,2.43491 0.82434,2.43491 0.35932,0 0.87727,-0.36237 1.151,-0.80528 z m -292.76236,-0.42286 c 0.26807,-0.26807 0.11273,-0.93884 -0.34519,-1.49061 -0.62541,-0.75357 -1.08262,-0.79572 -1.83728,-0.16941 -0.55257,0.45859 -0.822,1.12937 -0.59874,1.49061 0.47609,0.77034 2.08244,0.86818 2.78121,0.16941 z m 290.61501,-2.87788 c 0.55892,-1.4565 -0.10246,-2.12525 -1.5518,-1.56908 -0.65103,0.24982 -0.94516,0.91702 -0.69344,1.57299 0.56154,1.46335 1.68295,1.4614 2.24524,-0.004 z m -293.07772,-0.66507 c 0,-0.58707 -0.26592,-1.23174 -0.59093,-1.43261 -0.94762,-0.58566 -2.61125,0.77293 -2.05285,1.67644 0.73496,1.1892 2.64378,1.01314 2.64378,-0.24383 z m -89.96011,-0.47863 c 0.76335,-1.23513 -0.95349,-2.65149 -1.97535,-1.62963 -0.85476,0.85476 -0.31979,2.43491 0.82435,2.43491 0.35932,0 0.87727,-0.36238 1.151,-0.80528 z m 87.31564,-2.98235 c -0.23551,-0.38107 60.87448,-0.65681 145.56371,-0.65681 H 498.14815 V 91.111111 66.296296 H 310.37037 122.59259 v 24.814815 24.814819 h 40.69083 c 40.38816,0 40.69441,0.0113 41.1734,1.52048 0.38356,1.20848 0.69612,1.34326 1.52325,0.65681 0.57236,-0.47502 0.85799,-1.15924 0.63472,-1.52048 z m 293.4741,1.23051 c 0.22701,-0.5916 0.18688,-1.44112 -0.0892,-1.88782 -0.72394,-1.17136 -2.61908,0.55027 -2.09864,1.90651 0.52389,1.36523 1.6605,1.35552 2.18783,-0.0187 z m -377.4963,-0.7325 c 0,-0.58706 -0.26591,-1.23174 -0.59092,-1.4326 -0.94762,-0.58567 -2.61126,0.77292 -2.05285,1.67644 0.73496,1.18919 2.64377,1.01314 2.64377,-0.24384 z"
       id="path1329"
       transform="scale(0.26458333)" />
  </g>
</svg>
